<?xml version="1.0" encoding="utf-8"?>
<!-- Uploaded to: SVG Repo, www.svgrepo.com, Generator: SVG Repo Mixer Tools -->
<svg width="800px" height="800px" viewBox="-6.57 0 337.575 337.575" xmlns="http://www.w3.org/2000/svg"><defs><style>.a{fill:#f4b867;}.b{fill:#ffffff;}.c{fill:#957f6e;}.d{fill:#211715;}.e{fill:#bdbdbd;}</style></defs><path class="a" d="M157.378,335.259c-1.6-49.094,2.578-143.1,3.621-160.835,15.221,6.012,25.986,12.2,39.563,21.1,7.154,4.687,14.244,9.959,18.671,17.279a65.418,65.418,0,0,1,4.949,11.091c2.1,5.618,7.748,24.267,11.748,35.378l.032.091c3.931-7.625,7.259-14.858,10.373-21.933a.777.777,0,0,1,1.161-.374c1.075.758,2.275,1.545,3.581,2.342.662.413,1.354.835,2.074,1.248a132.32,132.32,0,0,0,17.731,8.592c.019.019.029.019.038.019,1.488.586,2.957,1.124,4.368,1.594,1.459.48,2.686,1.064,4.179,1.65a2.612,2.612,0,0,1,1.334,2.987c-3.129,7.68-12.626,33-16.044,39.283-7.027,12.941-17.914,32.918-30.173,34.224-7.094.758-12.566-1.862-18.777-6.374a75.578,75.578,0,0,1-22.05-25.374c.3,10.32,1.116,21.836,1.116,37.157Z"/><path class="b" d="M176.135,88.744a8.03,8.03,0,0,1,6.425-1.88,7.585,7.585,0,0,1,5.452,3.625,10.714,10.714,0,0,1,1.122,4.313,32.129,32.129,0,0,1-3.275,17.029,20.412,20.412,0,0,1-5.28,6.929,13.531,13.531,0,0,1-6.3,2.838l-1.078.167c-.517,1.933-1.1,3.562-1.382,4.427-1.807,4.905-11.806,21.714-24.462,28.2a79.579,79.579,0,0,0,1.178,10.919c.7,3.99.49,7.56,6.04,9.56.37.14,6.61,2.57,7.18,2.81,0,0-.234,31.362-40.275,31.362S86.36,176.225,86.36,176.225c1.07-.36,3.65-1.21,4.02-1.35,5.55-2,5.33-5.57,6.03-9.56A78.547,78.547,0,0,0,97.6,154.522a47.574,47.574,0,0,1-14.916-12.285A54.623,54.623,0,0,1,72.27,121.914l-2.053-.316a13.531,13.531,0,0,1-6.3-2.838,20.412,20.412,0,0,1-5.28-6.929A32.129,32.129,0,0,1,55.367,94.8a10.7,10.7,0,0,1,1.122-4.313,7.585,7.585,0,0,1,5.452-3.625,8.03,8.03,0,0,1,6.425,1.88S58.374,40.6,122.818,40.6,176.135,88.744,176.135,88.744Z"/><path class="c" d="M78.109,164.221c7.535-1.146,13.934-4.792,16.774-9.052l.987-1.584a48.965,48.965,0,0,1-13.188-11.348,54.622,54.622,0,0,1-10.413-20.326l-2.052-.313a13.531,13.531,0,0,1-6.3-2.838,16.647,16.647,0,0,1-2.187-2.149,26.753,26.753,0,0,0-2.707,8.946,43.777,43.777,0,0,0-.3,5.964q.01.607.044,1.218c.237,4.349,1.253,8.78,1.468,13.112.218,4.72-1.011,9.367-5.513,10.9-.178.06-.214.636-.209.783a2.051,2.051,0,0,0,.362,1.009,6.964,6.964,0,0,0,2.308,2.023C62.207,163.64,69.932,165.465,78.109,164.221Z"/><path class="c" d="M184.608,53.3c-.2-1.184-.411-2.281-.613-3.267C178.411,22.654,150.831.917,121.907,2.506,92.984.917,65.4,22.654,59.819,50.037c-1.513,7.386-1.332,20.022.044,25.918L62.632,86.8a7.971,7.971,0,0,1,5.734,1.943c11.431-7.929,30.821-21.7,40.861-30.338-.826,5.125-3.76,13.842-.064,12.946,15.434-3.574,30.226-10.781,39.17-22.025,1.885,6.639,5,15.608,7.289,19.527,3.239,5.546,12.624,18.025,20.513,19.89a8.03,8.03,0,0,1,6.425-1.88,7.692,7.692,0,0,1,1,.219C187.581,77.774,186.227,62.742,184.608,53.3Z"/><path class="d" d="M62.146,75.551a49.555,49.555,0,0,1-.969-9.647A86.538,86.538,0,0,1,61.6,54.129a50.267,50.267,0,0,1,6.938-19.921A61.1,61.1,0,0,1,102.531,7.371a55.018,55.018,0,0,1,10.9-2.274c3.776-.375,7.586-.268,11.372-.273a56.05,56.05,0,0,1,21.757,4.462,60.957,60.957,0,0,1,31.41,30.033,64.565,64.565,0,0,1,5.034,19.406c.919,7.419,1.426,15.283-.176,22.644a28.75,28.75,0,0,1-1.544,4.984,2.415,2.415,0,0,0,1.676,2.953,2.461,2.461,0,0,0,2.952-1.677c3.048-7.3,3-15.861,2.421-23.618-.547-7.275-1.553-14.783-3.994-21.687-5.3-14.992-16.687-27.556-30.694-34.958A63.253,63.253,0,0,0,130.559.315,111.126,111.126,0,0,0,118.647.024a59.8,59.8,0,0,0-12.04,1.32A65.982,65.982,0,0,0,67.379,27.231a58.188,58.188,0,0,0-9.654,21.14,73.617,73.617,0,0,0-.964,23.574,42.116,42.116,0,0,0,.757,4.882c.684,3.011,5.313,1.737,4.628-1.276Z"/><path class="d" d="M146.247,50.771c1.118,3.822,2.359,7.612,3.77,11.336A51,51,0,0,0,154,70.81a64.718,64.718,0,0,0,12.295,14.84c2.673,2.332,5.712,4.534,9.206,5.409,3,.749,4.276-3.878,1.276-4.629-5.359-1.341-9.964-6.6-13.458-10.836A50.272,50.272,0,0,1,155,61.742c-1.562-4.014-2.91-8.114-4.119-12.247-.865-2.959-5.5-1.7-4.629,1.276Z"/><path class="d" d="M146.791,47.434A55.5,55.5,0,0,1,127.78,62.282a80.964,80.964,0,0,1-11.7,4.692q-3.142,1-6.349,1.777c-.263.064-.541.116-.8.193-.393.116-.45-.081-.128.067-.145-.067-.325-.195.177.049a2.232,2.232,0,0,1,.6.352.628.628,0,0,1,.23.335c0-.069-.045-.458-.047-.133,0,.365-.01-.229-.01-.3-.024-3.308,1.225-6.827,1.8-10.271a2.422,2.422,0,0,0-4.011-2.335C97.454,65.354,86.511,73.039,75.683,80.7q-4.251,3.006-8.528,5.974a2.462,2.462,0,0,0-.861,3.284,2.421,2.421,0,0,0,3.283.861c11.3-7.843,22.532-15.823,33.4-24.268,2.694-2.094,5.361-4.224,7.951-6.446l-4.011-2.335c-.611,3.673-1.891,7.34-1.969,11.085a4.968,4.968,0,0,0,1.576,4.229c1.752,1.337,3.98.439,5.883-.055A82.019,82.019,0,0,0,138.72,61.4a53.671,53.671,0,0,0,11.465-10.571,2.475,2.475,0,0,0,0-3.394,2.417,2.417,0,0,0-3.394,0Z"/><path class="d" d="M59.655,115.4c-3.1,6.137-3.809,13.16-3.065,19.933.4,3.622,1.151,7.222,1.261,10.872.068,2.245-.122,4.884-1.595,6.71-.774.96-1.729,1.163-2.74,1.754-1.644.961-1.661,3.249-.887,4.764,1.363,2.668,4.739,4.112,7.376,5.181a35.74,35.74,0,0,0,19.6,1.778c6.576-1.182,13.479-4.356,17.349-10.009,1.75-2.556-2.408-4.959-4.144-2.423-3.661,5.347-11.313,7.731-17.462,8.167a31.828,31.828,0,0,1-11.189-1.136,24.2,24.2,0,0,1-4.274-1.665,15.577,15.577,0,0,1-2.138-1.251c-.231-.17-.47-.492-.706-.625-.3-.17-.023-.268-.115.057l-.617,1.059.11-.128-1.059.618c7.673-2.774,7.7-11.145,6.8-17.973-1.04-7.83-2.064-15.921,1.638-23.26,1.388-2.751-2.751-5.184-4.144-2.423Z"/><path class="d" d="M177.832,90.441a5.518,5.518,0,0,1,7.923.949,9.224,9.224,0,0,1,1.066,4.754,28.7,28.7,0,0,1-.341,6.065c-1.211,7.083-4.944,15.719-12.835,17.075a2.419,2.419,0,0,0-1.676,2.952,2.456,2.456,0,0,0,2.953,1.676c8.17-1.4,13.019-9.12,15.255-16.488a33.914,33.914,0,0,0,1.407-11.951c-.256-3.959-1.454-7.683-5.1-9.744a10.537,10.537,0,0,0-12.042,1.318,2.421,2.421,0,0,0,0,3.394,2.448,2.448,0,0,0,3.394,0Z"/><path class="d" d="M171.8,115.62a26.975,26.975,0,0,1-1.276,6.8c-.255.858-.537,1.707-.821,2.555-.077.229-.151.46-.235.687-.066.179-.365.846-.056.156a53.835,53.835,0,0,1-3.583,6.565,63.959,63.959,0,0,1-14.278,16.468,27.2,27.2,0,0,1-10.587,5.358c-3.009.692-1.736,5.321,1.276,4.629,8.046-1.85,14.78-7.653,20.082-13.725a69.309,69.309,0,0,0,11.052-16.461A35.143,35.143,0,0,0,176.6,115.62c.1-3.09-4.7-3.086-4.8,0Z"/><path class="d" d="M70.063,87.047a10.5,10.5,0,0,0-10.613-1.98c-3.931,1.551-5.9,4.858-6.4,8.928a32.942,32.942,0,0,0,5.766,22.774,17.219,17.219,0,0,0,10.759,7.143,2.471,2.471,0,0,0,2.953-1.676,2.42,2.42,0,0,0-1.677-2.952c-7.889-1.355-11.623-9.993-12.834-17.075a28.624,28.624,0,0,1-.35-5.841c.06-1.651.133-3.553,1.075-4.978a5.514,5.514,0,0,1,7.923-.949,2.461,2.461,0,0,0,3.394,0,2.421,2.421,0,0,0,0-3.394Z"/><path class="d" d="M68.226,114.844c2.923,16.865,12.063,33.37,27.689,41.509a37.5,37.5,0,0,0,13.559,4.056,2.415,2.415,0,0,0,2.4-2.4,2.454,2.454,0,0,0-2.4-2.4c-16.111-1.67-28.665-16.118-33.725-30.634a71.893,71.893,0,0,1-2.894-11.407,2.42,2.42,0,0,0-2.952-1.676,2.455,2.455,0,0,0-1.677,2.952Z"/><path class="d" d="M87,178.539a44.7,44.7,0,0,0,6-2.195,9.5,9.5,0,0,0,4.694-5.28,32.69,32.69,0,0,0,1.17-5.94A85.26,85.26,0,0,0,100,154.515c.128-3.089-4.673-3.083-4.8,0a74.48,74.48,0,0,1-.892,8.919,47.181,47.181,0,0,1-1.026,5.712c-.054.18-.115.358-.176.536-.085.248.133-.24-.059.151-.1.2-.2.4-.324.6-.011.019-.422.582-.166.268a5.219,5.219,0,0,1-2.118,1.573,42.708,42.708,0,0,1-4.718,1.64,2.457,2.457,0,0,0-1.676,2.953A2.425,2.425,0,0,0,87,178.539Z"/><path class="d" d="M144.96,154.4a116.659,116.659,0,0,0,1.474,12.871c.4,2.644.97,5.231,2.92,7.207,1.74,1.764,4.1,2.524,6.352,3.4,1.806.7,3.625,1.382,5.415,2.125a2.415,2.415,0,0,0,2.953-1.676,2.462,2.462,0,0,0-1.676-2.953c-1.584-.656-3.192-1.258-4.788-1.88-1.546-.6-3.549-1.182-4.671-2.226a4.1,4.1,0,0,1-1.255-2.075,24.887,24.887,0,0,1-.66-3.459A100.784,100.784,0,0,1,149.76,154.4c-.12-3.079-4.92-3.095-4.8,0Z"/><path class="b" d="M89.188,335.259c1.36-41.755-1.458-116-2.979-148.167a48.843,48.843,0,0,0,37.312,17.392c13.845-.186,27.785-7.051,36.882-18.4-1.506,31.605-4.4,106.977-3.025,149.172"/><path class="a" d="M89.188,335.259c1.594-48.964-2.556-142.605-3.612-160.693-15.035,5.965-25.739,12.129-39.211,20.955-7.154,4.687-14.244,9.959-18.671,17.279a65.418,65.418,0,0,0-4.949,11.091C11.759,253.3,7.411,301.569,2.354,334.4"/><path class="d" d="M45.261,253.126a118.281,118.281,0,0,0,1.768,18.2c.474,2.966.989,5.925,1.468,8.89a56.446,56.446,0,0,1,1.018,8.209c.112,8.939-.471,17.875-.812,26.8-.244,6.388-.393,12.778-.4,19.171,0,3.089,4.8,3.093,4.8,0,.007-10.576.5-21.13.923-31.695.172-4.277.314-8.557.3-12.838-.022-5.635-1.252-11.243-2.174-16.789a124.306,124.306,0,0,1-2.092-19.953c-.01-3.088-4.81-3.094-4.8,0Z"/><path class="d" d="M83.185,174.726c.357,6.17.637,12.345.913,18.52q.674,15.081,1.213,30.169.665,18.381,1.135,36.769c.316,12.577.556,25.157.656,37.739.089,11.242.083,22.489-.209,33.729q-.047,1.8-.105,3.607c-.1,3.089,4.7,3.086,4.8,0,.353-10.943.4-21.9.343-32.844-.063-12.5-.277-25.009-.57-37.511q-.437-18.6-1.1-37.2-.546-15.628-1.225-31.251c-.294-6.756-.6-13.513-.971-20.265q-.04-.732-.083-1.464c-.178-3.071-4.979-3.091-4.8,0Z"/><path class="d" d="M84.519,188.8a51.683,51.683,0,0,0,29.533,17.232,49.271,49.271,0,0,0,32.993-5.589A51.976,51.976,0,0,0,162.1,187.79a2.474,2.474,0,0,0,0-3.395,2.418,2.418,0,0,0-3.394,0,47.824,47.824,0,0,1-26.63,16.686,44.038,44.038,0,0,1-30.145-4.361A48.005,48.005,0,0,1,87.913,185.4a2.419,2.419,0,0,0-3.394,0,2.45,2.45,0,0,0,0,3.394Z"/><path class="d" d="M84.558,172.411a213.153,213.153,0,0,0-36.366,19.063c-5.708,3.677-11.463,7.448-16.3,12.253a41.319,41.319,0,0,0-6.268,7.861,60.489,60.489,0,0,0-4.557,9.977,211.787,211.787,0,0,0-9.2,33.688c-2.512,12.576-4.424,25.266-6.2,37.964C3.777,306.73,2.113,320.276.04,333.763a2.476,2.476,0,0,0,1.676,2.952,2.419,2.419,0,0,0,2.953-1.676c3.723-24.225,6.249-48.626,10.712-72.738a246.881,246.881,0,0,1,8.278-33.819c2.044-6.075,4.222-12.417,8.2-17.534,3.906-5.03,9.083-8.927,14.338-12.44,12.543-8.385,25.61-15.862,39.641-21.468a2.474,2.474,0,0,0,1.676-2.952,2.417,2.417,0,0,0-2.952-1.677Z"/><path class="d" d="M195.518,253.126a113.826,113.826,0,0,1-1.747,17.856c-.482,2.97-1,5.934-1.469,8.906a59.857,59.857,0,0,0-1.038,8.539c-.112,8.939.471,17.875.812,26.8.244,6.388.393,12.778.4,19.171,0,3.088,4.8,3.094,4.8,0-.006-10.576-.5-21.13-.923-31.695-.172-4.277-.314-8.557-.3-12.838.021-5.525,1.26-11.007,2.156-16.446a127.544,127.544,0,0,0,2.109-20.3c.01-3.089-4.79-3.093-4.8,0Z"/><path class="d" d="M161.093,177.04a182.677,182.677,0,0,1,22.6,10.871A217.544,217.544,0,0,1,205,201.487a54.194,54.194,0,0,1,8.892,8.036,37.935,37.935,0,0,1,6.36,10.8c2.217,5.492,3.979,11.148,5.792,16.782,2.454,7.623,4.863,15.268,7.571,22.807a2.462,2.462,0,0,0,2.953,1.676,2.42,2.42,0,0,0,1.676-2.952c-4.479-12.469-7.886-25.326-12.623-37.7a49.433,49.433,0,0,0-6.157-12.078,50.377,50.377,0,0,0-9.076-9.239,184.275,184.275,0,0,0-21.8-14.413,193.357,193.357,0,0,0-26.223-12.791,2.417,2.417,0,0,0-2.952,1.677,2.458,2.458,0,0,0,1.676,2.952Z"/><path class="d" d="M158.581,174.726c-.357,6.17-.636,12.345-.912,18.52q-.675,15.081-1.214,30.169-.665,18.381-1.135,36.769c-.316,12.577-.556,25.157-.655,37.739-.09,11.242-.083,22.489.208,33.729q.048,1.8.105,3.607c.1,3.081,4.9,3.094,4.8,0-.353-10.943-.4-21.9-.343-32.844.063-12.5.277-25.009.571-37.511q.436-18.6,1.1-37.2.546-15.628,1.225-31.251c.3-6.756.6-13.513.972-20.265q.04-.732.082-1.464c.179-3.086-4.622-3.076-4.8,0Z"/><path class="b" d="M262.459,190.66a5.735,5.735,0,0,1,3.406-2.763c2.874-.786,5.913,1.265,7.266,3.921l21.372,6.325c1.911-1.064,4.988.173,6.406,2.121,1.166,1.6,1.421,4.846.654,5.931l-1.9,2.7.527-.249c2.176-1.027,4.547.3,5.916,2.206a5.242,5.242,0,0,1-.5,6.4,15.1,15.1,0,0,1-4.759,3.517c1.791-.6,3.054-1.028,3.054-1.028,3.243-1.088,7.3,2.467,6.619,5.695-.523,2.478-2.883,4.243-5.125,5.626a18.46,18.46,0,0,1-5.982,2.664,6.719,6.719,0,0,1-2.152.04c-5.709,2.6-12.268,7.982-17.879,11.337-1.532.916-2.361,2.924-3.519,4.182,0,0-.487.528-1.231,1.342-1.2-.414-2.447-.874-3.7-1.369-.009,0-.019,0-.038-.019a132.32,132.32,0,0,1-17.731-8.592c-.72-.413-1.412-.835-2.074-1.248-.854-.521-1.662-1.037-2.416-1.541,3.352-3.076,5.017-6,5.624-8.5,1.217-5.009.976-10.447,2.536-15.359A87.451,87.451,0,0,0,260.566,197,16.883,16.883,0,0,1,262.459,190.66Z"/><path class="e" d="M276.642,213.975c-2.125,4.939-6.09,5.036-7.435,4.478a5.2,5.2,0,0,1-2.382-6.423c11.247-31.575,43.37-128.188,44.691-131.151,1.235-2.772,4.717-4.7,7.125-3.813,3.017,1.108,3.787,5.319,3.309,7.414C319.9,93.437,276.765,213.689,276.642,213.975Z"/><path class="d" d="M192.547,299.992a79.835,79.835,0,0,0,16.772,20.534c6.563,5.646,14.375,11.217,23.424,10.988,7.241-.184,12.955-4.623,17.568-9.864,5.265-5.982,9.422-12.883,13.3-19.813A142.653,142.653,0,0,0,270.87,287c2.557-6.124,4.969-12.308,7.381-18.491q1.617-4.149,3.237-8.3c.953-2.429,2.584-5.078,1.239-7.669-1.132-2.18-3.8-2.915-5.949-3.713-2.306-.854-4.409-1.559-6.5-2.4a125.258,125.258,0,0,1-13.137-6.287c-2.037-1.115-4.042-2.287-6-3.533-1.926-1.225-4.215-3.255-6.346-1.123a9.224,9.224,0,0,0-1.473,2.854q-.635,1.425-1.276,2.848-1.308,2.894-2.655,5.769c-3.985,8.488-8.3,16.819-13.014,24.926q-1.945,3.345-3.975,6.64c-1.622,2.639,2.528,5.053,4.145,2.423q6.695-10.893,12.479-22.307,2.6-5.132,5.019-10.349,1.17-2.511,2.307-5.036.52-1.156,1.036-2.314a10,10,0,0,1,1.02-2.232l-1.059.617-.114.008-1.211-.327a44.428,44.428,0,0,1,4.343,2.773c1.489.915,3.011,1.776,4.545,2.613q4.981,2.718,10.182,5.011c3.645,1.607,6.63,2.656,10.407,4.059.826.307,1.657.634,2.459,1,.165.075.333.166.473.235.191.093.014.37.1-.05a13.874,13.874,0,0,1-.805,2.076c-3.559,8.961-6.96,17.985-10.623,26.9a105.013,105.013,0,0,1-4.394,9.87c-2.778,5.2-5.661,10.371-8.852,15.334-3.117,4.847-6.563,9.624-10.932,13.431a23.293,23.293,0,0,1-2.809,2.112c-.487.31-.986.6-1.5.87a13.716,13.716,0,0,1-1.325.616,14.611,14.611,0,0,1-7.6.708c-6.52-.916-12.3-5.385-17.137-9.569a72.738,72.738,0,0,1-13.115-14.972c-.963-1.458-1.876-2.948-2.754-4.458-1.552-2.67-5.7-.256-4.145,2.422Z"/><path class="d" d="M296.037,231.688c-4.232,1.963-8.041,4.743-11.865,7.383-1.885,1.3-3.78,2.582-5.729,3.786a9.493,9.493,0,0,0-2.671,2.486c-.55.732-1.055,1.6-1.616,2.241a2.459,2.459,0,0,0,0,3.394,2.423,2.423,0,0,0,3.395,0c1.246-1.417,2.006-3.172,3.6-4.149,1.961-1.2,3.855-2.514,5.748-3.822a80.1,80.1,0,0,1,11.562-7.174,2.42,2.42,0,0,0,.861-3.284,2.455,2.455,0,0,0-3.283-.861Z"/><path class="d" d="M274.57,212.763a7.759,7.759,0,0,1-1.547,2.43,4.531,4.531,0,0,1-1.356.888c-.153.05-.936.223-.724.2.265-.035-.472,0-.616,0-.357.006.372.206-.127-.024-.049-.022-.467-.173-.1-.014.389.17-.154-.1-.221-.162.255.231-.423-.47-.443-.5a3.151,3.151,0,0,1-.417-.855,3.616,3.616,0,0,1,.232-2.37c.348-1,.707-1.994,1.059-2.992q2.629-7.469,5.194-14.958,6.6-19.2,13.082-38.433Q295.308,136.1,302,116.209c3.183-9.443,6.355-18.89,9.585-28.317.689-2.013,1.385-4.024,2.1-6.026.03-.082.072-.163.1-.246.067-.237-.263.536-.2.47.306-.312.443-.865.745-1.215.908-1.051,2.577-1.985,3.637-1.493,1.087.5,1.611,2.2,1.689,3.211a7.735,7.735,0,0,1,0,1.129c-.014.186.062-.225-.041.192-.032.127-.064.254-.1.381-1.465,5.652-3.58,11.186-5.468,16.7q-5.221,15.266-10.6,30.476-6.128,17.426-12.32,34.828-5.364,15.091-10.756,30.171-2.878,8.051-5.768,16.1c-.092.255-.176.515-.277.767A2.415,2.415,0,0,0,276,216.289a2.459,2.459,0,0,0,2.952-1.676c1.6-3.947,2.891-8.046,4.325-12.053q5.177-14.46,10.325-28.93,6.356-17.86,12.661-35.737,5.733-16.267,11.369-32.567c2.175-6.326,4.478-12.646,6.326-19.078a11.057,11.057,0,0,0,.261-5.38c-.894-4.4-4.977-7.638-9.473-5.93a9.764,9.764,0,0,0-5.729,5.764c-.3.8-.576,1.605-.856,2.409-2.925,8.4-5.741,16.845-8.585,25.276q-6.7,19.868-13.4,39.736-6.856,20.3-13.782,40.572-2.808,8.195-5.658,16.376c-.779,2.226-1.735,4.455-2.358,6.73-1.1,4,1.365,8.957,5.778,9.265,3.856.27,7.053-2.547,8.555-5.88a2.473,2.473,0,0,0-.861-3.284A2.418,2.418,0,0,0,274.57,212.763Z"/><path class="d" d="M291.38,223.612a7.738,7.738,0,0,0-.856,8.938c1.854,2.956,6.132,4.091,9.4,3.507a17.261,17.261,0,0,0,5.321-2.121,27.679,27.679,0,0,0,4.462-3.045c2.683-2.309,4.146-5.759,2.566-9.124-1.518-3.235-5.508-5.41-9.017-4.345a2.4,2.4,0,0,0,1.276,4.629c.162-.049.629-.145.2-.094a4.27,4.27,0,0,1,.75,0c.284.016-.065,0-.1-.013.106.025.215.043.319.076s.21.065.315.094c.621.172-.181-.11.142.057.2.1.393.214.584.333.1.059.189.123.28.189-.1-.07-.269-.26.04.049.159.159.318.319.477.476.014.014.247.3.095.1s.11.169.132.206a5.126,5.126,0,0,1,.362.668c-.155-.374-.014.089.034.228.014.042.067.384.029.092-.042-.313,0,.121,0,.2,0,.1,0,.207-.013.311.022-.283.039-.207-.034.021-.028.087-.233.638-.106.362a6.3,6.3,0,0,1-.438.761c-.14.219-.038.077,0,.027-.076.1-.165.2-.25.3a9.963,9.963,0,0,1-.735.747,20.015,20.015,0,0,1-6.049,3.667,14.549,14.549,0,0,1-1.718.5c.122-.019-.42.026-.554.027s-.257,0-.386-.007c-.065,0-.646-.069-.464-.04a6.343,6.343,0,0,1-2.441-.963c.116.085-.547-.558-.35-.305.16.207-.161-.3-.213-.415.2.434-.03-.238-.08-.41-.009-.033-.068-.386-.028-.109s-.009-.178-.01-.228a7.973,7.973,0,0,1,.022-.888c.026-.288,0,.052-.009.09.031-.142.059-.285.1-.425.028-.1.062-.206.094-.308.1-.317-.27.4.046-.1.054-.085.1-.175.155-.262.178-.3-.355.383.052-.052a2.4,2.4,0,0,0-3.394-3.394Z"/><path class="d" d="M300.824,210.956a2.1,2.1,0,0,1,2.506.4,2.894,2.894,0,0,1,1.228,2.594c-.216,2.2-3.141,3.866-5.08,4.817-1.721.843-3.436,1.7-5.163,2.536q-.754.364-1.519.707c-.114.05-.227.1-.341.149.046-.019.274-.112.023-.011-.271.109-.543.215-.819.311a7.944,7.944,0,0,0-1.026.291c-.2.105.251-.055.3-.04a1.964,1.964,0,0,0-.39.007,2.382,2.382,0,0,1-.741-.086,4.776,4.776,0,0,1-1.588-.617,1.959,1.959,0,0,1-.887-.951,4.8,4.8,0,0,1-.614-1.51c-.006-.024-.083-.47-.037-.166-.042-.274-.094-.189-.04-.124-.078-.094.191-.27.036-.175-.007,0-.434.455.1-.023a2.4,2.4,0,0,0-3.394-3.394c-3.154,2.824-.874,8.214,2.057,10.256a9.328,9.328,0,0,0,5.241,1.592,10.819,10.819,0,0,0,4.087-1.167c2.421-1.043,4.769-2.279,7.135-3.441,3.644-1.789,7.437-4.839,7.468-9.258.033-4.659-5.19-9.277-9.821-7.324a2.481,2.481,0,0,0-1.676,2.952,2.414,2.414,0,0,0,2.952,1.676Z"/><path class="d" d="M290,217.272c4.7-2.277,9.551-4.631,12.85-8.828a6.149,6.149,0,0,0,1.487-3.351,9.96,9.96,0,0,0-.281-3.551,8.479,8.479,0,0,0-8.081-6.187,9.032,9.032,0,0,0-4.1,1.5c-2.476,1.348-4.989,2.641-7.35,4.187-4.085,2.675-8.229,6.847-6.355,12.146.958,2.705,3.009,5.061,5.988,5.368a11.33,11.33,0,0,0,5.846-1.28,2.422,2.422,0,0,0,.861-3.284,2.453,2.453,0,0,0-3.284-.861c-.083.04-.453.2-.072.038.415-.173-.4.144-.522.184q-.438.15-.887.264c-.206.052-.413.1-.622.136s.1.012-.276.032a5.143,5.143,0,0,1-.657,0c-.4-.031.416.176-.248-.05-.054-.019-.4-.183-.119-.044-.054-.027-.326-.259-.119-.052a4.727,4.727,0,0,1-1.221-1.63,4.484,4.484,0,0,1-.368-1.73,1.694,1.694,0,0,1,.079-.541,9.932,9.932,0,0,1,4.248-4.457c1.867-1.234,3.833-2.3,5.8-3.366.981-.531,1.957-1.071,2.939-1.6.565-.3-.224.057.188-.1.094-.035.6-.084.255-.06a1.941,1.941,0,0,1,1,.143,3.439,3.439,0,0,1,2.453,2.52,3.636,3.636,0,0,1,.142.742,6.416,6.416,0,0,1,.006,1.176c-.033.367-.13-.419-.04.15.023.144-.247.4.039-.043a8.628,8.628,0,0,1-.762.993c-2.985,3.438-7.219,5.344-11.236,7.291a2.423,2.423,0,0,0-.861,3.284A2.451,2.451,0,0,0,290,217.272Z"/><path class="b" d="M289.126,199.393c1.691-.721,5.179-2.819,5.984-4.633a5.473,5.473,0,0,0,.332-3.951c-.732-1.961-1.648-3.5-3.61-4.226a6,6,0,0,0-4.149.237,16.363,16.363,0,0,0-5.757,3.885c-1.687,1.989-2.387,5.069-.914,7.221,1.366,2,4.167,2.57,6.518,2A10.176,10.176,0,0,0,289.126,199.393Z"/><path class="d" d="M290.338,201.465a18.736,18.736,0,0,0,3.731-2.205,9.427,9.427,0,0,0,3.446-4.077,8.221,8.221,0,0,0,.565-2.99,8.5,8.5,0,0,0-.923-3.475,8.066,8.066,0,0,0-3.538-3.955c-3.966-2.024-8.358.086-11.582,2.577-3.086,2.384-5.291,6.6-3.742,10.5,1.808,4.551,7.292,5.6,11.469,3.871a2.466,2.466,0,0,0,1.677-2.952c-.36-1.112-1.711-2.191-2.953-1.676a12.283,12.283,0,0,1-1.992.619c-.616.14.314.007-.069.009-.169,0-.34.024-.51.027-.137,0-.274,0-.41,0-.081,0-.755-.073-.175.01a6.384,6.384,0,0,1-.985-.224c-.128-.04-.252-.088-.379-.131.439.15.13.06.03,0-.141-.085-.289-.157-.428-.245-.12-.077-.425-.358-.067-.032-.1-.088-.195-.173-.288-.267s-.353-.528-.131-.127c-.062-.112-.145-.249-.22-.357-.337-.486.035.236-.053-.085-.042-.152-.233-1.009-.168-.46a5.372,5.372,0,0,1-.024-.932c.007-.137.091-.585,0-.093.04-.209.082-.417.138-.623.038-.137.08-.274.125-.409,0,.013.263-.619.115-.313s.172-.314.161-.294c.069-.126.141-.25.217-.371s.156-.239.236-.357c-.253.376.019-.023.095-.11a9.878,9.878,0,0,1,.931-.933q.18-.157.366-.308c-.269.216.044-.03.087-.059.331-.228.662-.453,1.006-.661.658-.4,1.342-.754,2.033-1.091.182-.089.365-.176.548-.263.486-.231.124-.043.027-.013a6.75,6.75,0,0,1,1.074-.269c-.44.064.367,0,.52,0-.019,0,.706.079.365.017-.263-.048.363.117.432.13.34.064-.4-.251.105.045.115.067.235.125.349.2s.219.141.324.217c-.413-.3-.067-.048.025.053s.217.229.325.34.21.346-.024-.039c.169.278.354.541.508.829.078.148.152.3.223.451.051.11.218.535.046.094a5.65,5.65,0,0,1,.311.959c.07.358.061-.471,0,.186-.016.159-.008.323-.02.482.03-.377,0,.011-.022.084-.06.234-.129.467-.188.7-.174.687.077-.092-.043.152-.065.134-.145.256-.218.384-.084.149-.338.372.037-.032-.12.129-.231.264-.354.39-.219.225-.452.437-.691.64-.1.086-.2.168-.3.251.409-.334-.061.042-.156.11a18.463,18.463,0,0,1-3.406,1.965,2.407,2.407,0,0,0-.861,3.284A2.474,2.474,0,0,0,290.338,201.465Z"/><path class="d" d="M275.2,190.606c-1.971-3.653-6.4-6.408-10.571-4.821-3.784,1.439-5.474,5.4-6.155,9.124-.771,4.228-1.225,8.46-2.292,12.638-.593,2.321-1.383,4.584-1.993,6.9A50.753,50.753,0,0,0,253,221.864a39.388,39.388,0,0,1-1.233,7.577,14.915,14.915,0,0,1-3.668,5.617c-2.135,2.233,1.255,5.632,3.394,3.394a19.717,19.717,0,0,0,5.521-10.473c.775-4.444.793-9.011,2.122-13.35a98.5,98.5,0,0,0,2.989-11.925c.582-3.334.521-7.292,2.137-10.348.628-1.188,1.527-2.284,2.988-2.227,1.709.065,3.051,1.493,3.809,2.9,1.468,2.72,5.613.3,4.145-2.423Z"/><path class="d" d="M112.9,131.845a21.228,21.228,0,0,0,10.223,2.361c3.637-.024,7.341-.728,10.258-3a2.413,2.413,0,0,0,0-3.394,2.462,2.462,0,0,0-3.394,0c.71-.553.095-.085-.087.031-.208.134-.423.257-.642.372-.151.079-.9.393-.305.165-.294.112-.586.226-.885.322a15.23,15.23,0,0,1-5.279.705,15.86,15.86,0,0,1-5.036-.678c-.324-.1-.64-.213-.959-.323-.1-.035-.2-.089-.31-.12.591.173.17.076.014,0-.4-.186-.788-.382-1.176-.586a2.452,2.452,0,0,0-3.283.861,2.425,2.425,0,0,0,.861,3.283Z"/><path class="d" d="M122.036,107.588a48.658,48.658,0,0,1,1.145,5.241l-.085-.638a3.18,3.18,0,0,1,.019.723l.086-.638a1.792,1.792,0,0,1-.079.325l.241-.573a1.282,1.282,0,0,1-.114.209l.375-.486a1.093,1.093,0,0,1-.171.169l.485-.375a3.356,3.356,0,0,1-.415.22l.574-.242a3.054,3.054,0,0,1-.7.2l.638-.086a2.831,2.831,0,0,1-.657,0l.638.086c-.247-.035-.49-.095-.738-.128a2.649,2.649,0,0,0-1.849.241,2.4,2.4,0,0,0-.861,3.284,2.3,2.3,0,0,0,1.434,1.1c.538.073,1.061.21,1.608.234a5.085,5.085,0,0,0,2.336-.551,3.305,3.305,0,0,0,1.853-2.189,5.6,5.6,0,0,0-.025-2.39c-.285-1.689-.675-3.362-1.109-5.018a2.4,2.4,0,0,0-4.629,1.276Z"/><path class="d" d="M94.05,92.824c-.875,2.844-.3,9.386,5.083,9.942,7.121-.042,7.5-7.952,5.1-11.671C102.273,88.05,96.5,86.784,94.05,92.824Z"/><path class="d" d="M151.075,92.824c.875,2.844.305,9.386-5.083,9.942-7.121-.042-7.5-7.952-5.1-11.671C142.852,88.05,148.623,86.784,151.075,92.824Z"/></svg>