<?xml version="1.0" encoding="utf-8"?>
<!-- Uploaded to: SVG Repo, www.svgrepo.com, Generator: SVG Repo Mixer Tools -->
<svg width="800px" height="800px" viewBox="0 -37.49 392 392" xmlns="http://www.w3.org/2000/svg"><defs><style>.a{fill:#ffffff;}.b{fill:#211715;}.c{fill:#a6a2a1;}.d{fill:#f2635f;}.e{fill:#d9d9d9;}.f{fill:#7a7473;}</style></defs><path class="a" d="M383.742,12.809c0-2.624-2.61-4.747-5.831-4.745-35.064.028-320.528.223-363.774.242-3.159,0-5.715,2.083-5.72,4.657C8.37,39.071,8.05,225.149,8,251.019c5.834,0,370.467.292,376,.292C383.975,222.243,383.778,37.271,383.742,12.809Z"/><path class="b" d="M391.732,6.174A6.125,6.125,0,0,0,385.652,0C349.1.036,51.484.289,6.4.314A6.015,6.015,0,0,0,.435,6.374C.385,40.345.052,276.8,0,310.459a6.127,6.127,0,0,0,6.071,6.19c36.661.042,343.446.331,379.841.375A6.129,6.129,0,0,0,392,310.839C391.974,273.016,391.768,38,391.732,6.174ZM8,251.019c.05-25.87.37-211.948.417-238.056.005-2.574,2.561-4.656,5.72-4.657,43.246-.019,328.71-.214,363.774-.242,3.221,0,5.828,2.121,5.832,4.745.035,24.462.232,209.434.257,238.5C378.467,251.311,13.834,251.019,8,251.019Z"/><path class="c" d="M351.751,274.353h-7.285a2.028,2.028,0,0,0-2,2c0,1.758-.01,3.516-.01,5.274a2,2,0,1,0,4,0c0-1.758.009-3.516.01-5.274l-2,2h7.285a2,2,0,0,0,0-4Z"/><path class="c" d="M364.064,278.353h7.285l-2-2c0,1.758.009,3.516.009,5.274a2,2,0,0,0,4,0c0-1.758-.009-3.516-.009-5.274a2.03,2.03,0,0,0-2-2h-7.285a2,2,0,0,0,0,4Z"/><path class="c" d="M324.407,277.371c-8.381-.011-16.762-.288-25.143-.293a2.028,2.028,0,0,0-2,2q0,9.33-.01,18.66a2.029,2.029,0,0,0,2,2c7.189.006,14.38.119,21.569.178,1.194.01,2.389.025,3.584.026a2.029,2.029,0,0,0,2-2V279.371c0-2.574-4-2.578-4,0v18.571l2-2c-7.171-.006-14.343-.12-21.514-.179-1.213-.009-2.426-.024-3.639-.025l2,2q0-9.33.01-18.66l-2,2c8.381.005,16.762.282,25.143.293C326.981,281.374,326.985,277.374,324.407,277.371Z"/><path class="c" d="M26.256,285.383c0-2.909,0-5.817,0-6.746a2.476,2.476,0,0,0-2.484-2.477h-2.4a2.482,2.482,0,0,0-2.483,2.527c.034,2,.034,15.538,0,17.542a2.482,2.482,0,0,0,2.483,2.527h2.4a2.476,2.476,0,0,0,2.484-2.477C26.257,295.35,26.256,288.291,26.256,285.383Z"/><path class="c" d="M39.087,285.383c0-2.909,0-5.817,0-6.746A2.475,2.475,0,0,0,36.6,276.16h-2.4a2.484,2.484,0,0,0-2.484,2.527c.034,2,.034,15.538,0,17.542a2.484,2.484,0,0,0,2.484,2.527h2.4a2.475,2.475,0,0,0,2.483-2.477C39.087,295.35,39.087,288.291,39.087,285.383Z"/><path class="c" d="M82.981,290.837V279.2a1.369,1.369,0,0,0-1.374-1.37H80.281a1.375,1.375,0,0,0-1.374,1.4c.019,1.109.019,15.353,0,16.462a1.375,1.375,0,0,0,1.374,1.4h1.326a1.369,1.369,0,0,0,1.374-1.37Z"/><path class="c" d="M62.54,295.6a.88.88,0,0,0,1.381.6c2.245-1.436,10.295-7.172,10.891-7.536a1.744,1.744,0,0,0,.759-1.2,1.794,1.794,0,0,0-.759-1.2c-.6-.364-8.646-6.1-10.891-7.536a.88.88,0,0,0-1.381.6C62.535,281,62.535,293.933,62.54,295.6Z"/><path class="c" d="M113.113,293.217c-.79,0-3.361-.008-5.213-.008a2.055,2.055,0,0,1-1.937-1.9v-8.452a2.188,2.188,0,0,1,1.963-1.948c1.4,0,3.823-.025,5.214-.025,1.356-.881,6.578-4.7,10.19-7.065a1.226,1.226,0,0,1,1.9,1.028c-.013,5.66-.058,19.772-.073,25.265a1.232,1.232,0,0,1-1.969.985C119.993,298.724,113.964,293.818,113.113,293.217Z"/><path class="c" d="M351.751,297.451h-7.285l2,2c0-1.757-.01-3.515-.01-5.273a2,2,0,0,0-4,0c0,1.758.009,3.516.01,5.273a2.028,2.028,0,0,0,2,2h7.285a2,2,0,0,0,0-4Z"/><path class="c" d="M364.064,301.451h7.285a2.03,2.03,0,0,0,2-2c0-1.757.009-3.515.009-5.273a2,2,0,0,0-4,0c0,1.758-.009,3.516-.009,5.273l2-2h-7.285a2,2,0,0,0,0,4Z"/><path class="c" d="M129.543,283.152a.724.724,0,0,1,.859-.708c2.192.416,4.156,2.432,4.156,5.94a4.776,4.776,0,0,1-4.175,5.131.727.727,0,0,1-.84-.708Z"/><path class="c" d="M143.391,288.029c0-7.273-5.881-13.463-12.018-14.434a1.221,1.221,0,0,0-1.411,1.155c-.017.443-.039.908-.056,1.34a1.205,1.205,0,0,0,.936,1.216c3.351.832,8.291,5.619,8.334,10.671-.042,5.051-4.983,9.838-8.334,10.67a1.207,1.207,0,0,0-.936,1.216c.017.432.039.9.056,1.341a1.221,1.221,0,0,0,1.411,1.155A14.95,14.95,0,0,0,143.391,288.029Z"/><path class="d" d="M166.7,250.745c-5.784,0-147.174-.186-158.672-.186,0,7.343-.031,5.614-.031,11.87,5.066,0,153.97.13,158.7.13Z"/><path class="c" d="M384,250.745c-11.841,0-180.96-.186-204.5-.186v11.87c10.37,0,194.81.13,204.5.13Z"/><path class="a" d="M173.235,241.578c-7.113,0-14.226,5.589-14.226,14.9,0,11.642,8.412,15.035,14.226,15.035,6.9,0,14.225-3.393,14.225-15.035C187.46,247.167,180.348,241.578,173.235,241.578Z"/><path class="b" d="M173.235,239.578a16.391,16.391,0,0,0-15.709,12.487c-1.658,6.945.449,15.04,6.719,18.958a18.222,18.222,0,0,0,15.775,1.314c6.96-2.731,9.879-9.867,9.4-17.021a16.541,16.541,0,0,0-16.188-15.738c-2.575-.028-2.577,3.972,0,4a12.359,12.359,0,0,1,11.893,9.723c1.2,5.289-.212,12.027-5.288,14.751a14.317,14.317,0,0,1-11.888.413c-5-2.129-7.1-7.271-6.932-12.573a12.489,12.489,0,0,1,12.215-12.314C175.807,243.55,175.814,239.55,173.235,239.578Z"/><path class="e" d="M374.71,135.182c-13.966,0-27.932-.119-41.9-.169q-5.019-.018-10.039-.023a2.029,2.029,0,0,0-2,2c0,12.487-.183,24.976-.318,37.463q-.26,23.9-.5,47.789c-.057,6.4-.115,12.8-.116,19.2,0,2.574,4,2.578,4,0,0-13.163.178-26.327.318-39.49q.252-23.61.5-47.221c.055-5.914.115-11.829.116-17.744l-2,2c14.538,0,29.076.11,43.614.168,2.774.011,5.549.024,8.323.024,2.574,0,2.578-4,0-4Z"/><path class="e" d="M373.459,147.927c-11.419,0-22.837-.108-34.255-.169-1.829-.009-3.658-.023-5.488-.023a2.028,2.028,0,0,0-2,2q0,15.46,0,30.92,0,2.819,0,5.636a2.029,2.029,0,0,0,2,2c10.361,0,20.722.045,31.083.063q4.332.007,8.665.009c2.573,0,2.578-4,0-4-11.065,0-22.129-.041-33.193-.063q-3.277-.006-6.555-.009l2,2q0-15.732,0-31.464v-5.092l-2,2c10.7,0,21.394.12,32.091.168q3.825.018,7.652.024c2.573,0,2.578-4,0-4Z"/><path class="e" d="M17.29,227.631c9.287,0,18.575-.05,27.862-.085q17.745-.065,35.491-.134c3.3-.012,6.6-.031,9.906-.031l-2-2q0,8.357.007,16.712c0,2.574,4,2.579,4,0q0-8.355-.007-16.712a2.028,2.028,0,0,0-2-2c-7.982,0-15.964.053-23.946.084q-18.288.071-36.576.134-6.367.021-12.737.032c-2.574,0-2.578,4,0,4Z"/><path class="e" d="M23.349,205.146q0,8.393,0,16.785,0,1.513,0,3.028c0,2.574,4,2.578,4,0q0-8.54,0-17.079v-2.734c0-2.574-4-2.578-4,0Z"/><path class="e" d="M17.29,122.391c14.854,0,29.708-.139,44.561-.219,2.385-.013,4.769-.03,7.153-.031l-2-2q0,14.1,0,28.207,0,21.567,0,43.136,0,5.745,0,11.49l2-2c-13.471,0-26.941.059-40.412.082q-5.654.009-11.309.012c-2.574,0-2.578,4,0,4,14.387,0,28.775-.053,43.162-.082q4.279-.009,8.559-.012a2.029,2.029,0,0,0,2-2q0-14.59,0-29.181,0-21.43,0-42.861,0-5.4,0-10.791a2.029,2.029,0,0,0-2-2c-13.914,0-27.829.157-41.743.22q-4.986.022-9.971.03c-2.574,0-2.578,4,0,4Z"/><path class="e" d="M373.459,158.631c-2.849,0-5.7-.095-8.546-.1a2,2,0,0,0,0,4c2.849,0,5.7.093,8.546.1a2,2,0,0,0,0-4Z"/><path class="e" d="M373.459,195.985c-11.419,0-22.837-.107-34.255-.169-1.829-.009-3.658-.023-5.488-.023a2.029,2.029,0,0,0-2,2q0,15.46,0,30.921,0,2.817,0,5.635a2.029,2.029,0,0,0,2,2c10.361,0,20.722.045,31.083.063q4.332.007,8.665.009c2.573,0,2.578-4,0-4q-16.6,0-33.193-.063-3.277-.006-6.555-.009l2,2q0-15.732,0-31.464v-5.092l-2,2c10.7,0,21.394.12,32.091.168q3.825.018,7.652.024c2.573,0,2.578-4,0-4Z"/><path class="e" d="M373.459,206.689c-2.849,0-5.7-.095-8.546-.1a2,2,0,0,0,0,4c2.849,0,5.7.093,8.546.1a2,2,0,0,0,0-4Z"/><path class="e" d="M40.341,136.61l13.9,13.822c1.828,1.818,4.657-1.009,2.829-2.828l-13.9-13.822c-1.827-1.817-4.657,1.01-2.828,2.828Z"/><path class="e" d="M50.835,133.11l5.61,5.58a2,2,0,1,0,2.828-2.829l-5.61-5.579a2,2,0,0,0-2.828,2.828Z"/><path class="a" d="M155.576,93.573C158.861,84.061,168.46,71,194.074,71c40.117,0,38.774,32.239,38.774,32.239a5.871,5.871,0,0,1,4.7-1.375,5.548,5.548,0,0,1,3.987,2.651,7.851,7.851,0,0,1,.821,3.154,23.5,23.5,0,0,1-2.4,12.454A14.936,14.936,0,0,1,236.1,125.2a9.894,9.894,0,0,1-4.605,2.075l-.788.122c-.377,1.414-.8,2.605-1.01,3.238-1.268,3.441-8.048,14.893-16.768,20.01a53.963,53.963,0,0,0,.772,6.858c.466,2.655.32,5.029,4.012,6.363.245.088,10.716,5.07,11.09,5.224,0,0-3.281,22.7-37.3,22.7s-33.825-22.132-33.825-22.132c.711-.243,12.389-5.7,12.633-5.793,3.693-1.334,3.547-3.708,4.012-6.363a50.288,50.288,0,0,0,.758-6.32,35.073,35.073,0,0,1-10.574-8.813,39.954,39.954,0,0,1-7.615-14.866l-1.5-.229a9.9,9.9,0,0,1-4.6-2.075,14.936,14.936,0,0,1-3.861-5.068,23.5,23.5,0,0,1-2.4-12.454,7.851,7.851,0,0,1,.821-3.154,5.548,5.548,0,0,1,3.987-2.651,5.871,5.871,0,0,1,4.7,1.375,21.691,21.691,0,0,1,.02-2.337A27.677,27.677,0,0,1,155.576,93.573Z"/><path class="f" d="M182.7,39.885c-8.78,1-17.816,4.162-25.14,11.533l3.506,2.992C155.091,58.1,150.4,65.254,148.243,71.585c-2.537,7.449-3.294,18.049-.282,30.573l.022.091a5.523,5.523,0,0,1,1.349-.381,5.871,5.871,0,0,1,4.7,1.375l5.037-3,.414-.247c10.648-9.965,16.585-14.09,26.129-21.588.058.665,2.185,5.984,2.683,6.187.614.25,6.765-3.554,11.772-6.648,4.044.493,8.45,1.028,8.45,1.028a25.09,25.09,0,0,1,10.805,5.781c5.814,5,10.49,12.247,13.341,18.692a5.751,5.751,0,0,1,4.885-1.581,5.566,5.566,0,0,1,1.023.254c2.92-7.5,3.348-18.367-.339-28.676-2.593-7.249-8.774-14.829-13.648-16.961l-5.753-4.1c-5.647-7.736-15.059-12.478-27.106-12.847A62.987,62.987,0,0,0,182.7,39.885Z"/><path class="b" d="M234.262,104.657a3.779,3.779,0,0,1,5.456.726,7.16,7.16,0,0,1,.712,3.611,20.7,20.7,0,0,1-.3,4.3c-.924,5.051-3.57,11.045-9.168,12.049a2.016,2.016,0,0,0-1.4,2.46,2.044,2.044,0,0,0,2.46,1.4c7.921-1.42,11.711-10.381,12.328-17.562.3-3.472.168-7.7-2.768-10.077a7.921,7.921,0,0,0-10.152.269c-1.977,1.653.866,4.47,2.829,2.828Z"/><path class="b" d="M229.433,122.9a19.778,19.778,0,0,1-.914,4.876c-.184.617-.386,1.228-.59,1.838-.059.178-.418,1.107-.2.6a35.723,35.723,0,0,1-2.55,4.694,46.783,46.783,0,0,1-10.407,12.06,19.842,19.842,0,0,1-7.71,3.915c-2.506.583-1.445,4.441,1.063,3.857,5.892-1.37,10.827-5.574,14.725-10.02a50.676,50.676,0,0,0,8.213-12.217,26.239,26.239,0,0,0,2.371-9.606c.1-2.574-3.905-2.57-4,0Z"/><path class="b" d="M155.446,101.829a7.921,7.921,0,0,0-10.152-.269c-2.932,2.37-3.072,6.607-2.768,10.077.63,7.182,4.4,16.14,12.328,17.562a2.057,2.057,0,0,0,2.46-1.4,2.017,2.017,0,0,0-1.4-2.46c-5.6-1-8.244-7-9.168-12.049a20.645,20.645,0,0,1-.305-4.079,8.149,8.149,0,0,1,.628-3.686,3.76,3.76,0,0,1,5.545-.871c1.962,1.641,4.806-1.174,2.829-2.828Z"/><path class="b" d="M153.693,122.4a45.042,45.042,0,0,0,9.534,21.548c5.361,6.364,12.475,11.068,20.869,11.955a2.013,2.013,0,0,0,2-2,2.047,2.047,0,0,0-2-2c-7.449-.787-13.686-5.492-18.323-11.121-4.563-5.539-7.006-12.453-8.223-19.446a2.016,2.016,0,0,0-2.46-1.4,2.046,2.046,0,0,0-1.4,2.46Z"/><path class="b" d="M223.574,58.212c3.1,1.41,5.6,4.06,7.65,6.722a34.473,34.473,0,0,1,5.6,10.609,40.846,40.846,0,0,1,.331,24.6c-.792,2.456,3.069,3.508,3.858,1.064a43.313,43.313,0,0,0-7.849-40.192,22.79,22.79,0,0,0-7.575-6.26,2.062,2.062,0,0,0-2.737.718,2.016,2.016,0,0,0,.718,2.736Z"/><path class="b" d="M163.811,50.87c-7.068,2.674-12.325,8.942-15.582,15.586a45.672,45.672,0,0,0-4.218,20.932,71.653,71.653,0,0,0,2.021,15.3c.594,2.5,4.452,1.444,3.857-1.063-3.205-13.52-3.037-29.062,6.316-40.225a21.784,21.784,0,0,1,8.67-6.674,2.058,2.058,0,0,0,1.4-2.461,2.015,2.015,0,0,0-2.461-1.4Z"/><path class="b" d="M220.557,51.375a34.4,34.4,0,0,0-22.632-13.244,54.2,54.2,0,0,0-27.71,2.725A41.269,41.269,0,0,0,156.146,50c-1.827,1.819,1,4.648,2.829,2.829a39.524,39.524,0,0,1,23.413-10.91c8.334-1,17.311-.55,24.911,3.316a27.791,27.791,0,0,1,9.8,8.156,2.062,2.062,0,0,0,2.736.718,2.017,2.017,0,0,0,.718-2.737Z"/><path class="b" d="M201.593,74.658c-4.068,2.5-8.076,5.155-12.3,7.393-.3.159-.6.308-.906.46-.23.116-.363.234-.078.042a1.028,1.028,0,0,1-.306.1c.447.023,1.9.069,1.693.562.116.155.123.155.019,0l-.079-.135c-.171-.376-.383-.736-.557-1.112a16.066,16.066,0,0,1-1.544-4.09c-.243-1.668-2.321-1.684-3.342-.883-9.062,7.113-18.128,14.084-26.544,21.974-1.882,1.764.951,4.589,2.829,2.828,8.415-7.889,17.482-14.861,26.543-21.974l-3.343-.882a20.37,20.37,0,0,0,2.1,5.363,4.312,4.312,0,0,0,1.506,2.019,3,3,0,0,0,2.827-.221,54.985,54.985,0,0,0,5.842-3.284c2.564-1.55,5.1-3.139,7.658-4.707,2.19-1.344.183-4.805-2.019-3.453Z"/><path class="b" d="M207.985,80.905c5.506,1.264,10.027,4.887,13.728,9.019a55.8,55.8,0,0,1,8.932,13.891,2.016,2.016,0,0,0,2.736.717,2.046,2.046,0,0,0,.718-2.736,58.894,58.894,0,0,0-9.826-15c-4.086-4.483-9.22-8.371-15.225-9.75-2.506-.575-3.575,3.28-1.063,3.857Z"/><path class="b" d="M210.933,150.756a66.817,66.817,0,0,0,.872,7.449,13.4,13.4,0,0,0,1.1,4.266,6.327,6.327,0,0,0,1.853,2.079,6.726,6.726,0,0,0,1.045.654c.293.146.6.277.9.4.662.262-.085-.051.051.009,1.617.723,3.21,1.5,4.811,2.263a2.055,2.055,0,0,0,2.736-.718,2.017,2.017,0,0,0-.717-2.736c-1.56-.738-3.116-1.485-4.684-2.2a12.411,12.411,0,0,1-1.647-.779c-.031-.02-.491-.386-.219-.145-.133-.118-.252-.248-.381-.37-.264-.25.06.122-.049-.054-.085-.138-.168-.275-.249-.415-.107-.184-.125-.284-.03-.029-.056-.15-.109-.3-.155-.454-.085-.286-.151-.578-.207-.871-.126-.649-.2-1.305-.31-1.957a57.255,57.255,0,0,1-.729-6.385,2.043,2.043,0,0,0-2-2,2.019,2.019,0,0,0-2,2Z"/><path class="b" d="M166.113,167.993c1.658-.771,3.32-1.535,4.976-2.31a1.133,1.133,0,0,0,.174-.079q-.759.31-.2.094l.221-.089a8.887,8.887,0,0,0,1.6-.792,6.836,6.836,0,0,0,1.991-1.96,10.042,10.042,0,0,0,1.258-4.157c.349-2.32.748-4.619.908-6.964a2,2,0,0,0-4,0c-.135,1.991-.469,3.931-.765,5.9-.093.614-.172,1.231-.312,1.837a8.334,8.334,0,0,1-.26.887c-.046.13.18-.293-.047.079-.079.131-.16.265-.236.4-.107.188.232-.224-.027.037l-.356.357c-.284.284.169-.067-.173.131-.174.1-.341.213-.52.307-.438.231-.915.393-1.455.64-1.6.736-3.2,1.486-4.8,2.229a2.017,2.017,0,0,0-.718,2.736,2.046,2.046,0,0,0,2.737.718Z"/><path class="b" d="M143.851,242.093c-.695-7.166-1.409-14.33-2.1-21.5-.456-4.764-1-9.54-1.241-14.32-.127-2.562-4.128-2.578-4,0,.239,4.78.785,9.556,1.241,14.32.687,7.167,1.4,14.331,2.1,21.5a2.056,2.056,0,0,0,2,2,2.014,2.014,0,0,0,2-2Z"/><path class="b" d="M252.278,205.975c-1.1,4.318-2.116,9.037-.557,13.378a16.141,16.141,0,0,0,1.313,2.813c.189.318.6.765.709,1.017,0-.013-.006.558-.039.881-.172,1.689-.928,3.306-1.014,5-.208,4.108,3.176,7.971,6.6,9.821a18.982,18.982,0,0,0,7.11,1.966,18.217,18.217,0,0,0,8.072-.733,6.543,6.543,0,0,0,4.231-4.255c.41-1.612.076-3.27.265-4.9.485-4.2,3.749-6.646,6.414-9.566,1.792-1.963,3.441-4.067,5.1-6.146a12.565,12.565,0,0,0,2.459-5.253A30.509,30.509,0,0,0,293,197.9c-.875-5.044-2.342-10.452-6.015-14.222a12.008,12.008,0,0,0-15.011-2.223c-2.232,1.281-.219,4.739,2.019,3.454,3.709-2.13,7.551-1.233,10.409,1.855,2.694,2.911,3.76,7.11,4.5,10.9a27.814,27.814,0,0,1,.409,10.1,10.664,10.664,0,0,1-1.522,4.484c-1.35,1.879-2.925,3.661-4.435,5.413-2.356,2.732-5.471,5.072-7.057,8.386a14.324,14.324,0,0,0-1.38,5.661c-.027.694.021,1.388.015,2.082a3.194,3.194,0,0,1-.163,1.29c-.722,1.538-3.227,1.71-4.721,1.817a18.952,18.952,0,0,1-7.053-.787c-2.742-.859-6.123-3.456-6.3-6.571a6.976,6.976,0,0,1,.395-1.964,27.439,27.439,0,0,0,.536-2.815,6.761,6.761,0,0,0-.019-2.644,15.713,15.713,0,0,0-1.545-2.751c-2-3.885-.941-8.323.079-12.33.636-2.5-3.221-3.56-3.857-1.063Z"/><path class="b" d="M271.244,194.434a29.345,29.345,0,0,1,4.816.119c.59.062-.409-.067.178.022.206.031.413.063.619.1q.573.1,1.141.227a22.244,22.244,0,0,1,2.414.695,2.012,2.012,0,0,0,2.46-1.4,2.049,2.049,0,0,0-1.4-2.46,26.509,26.509,0,0,0-10.231-1.305,2,2,0,0,0,0,4Z"/><path class="b" d="M268.845,202c1.485,0,2.972.039,4.45.183q.3.029.593.063a1.056,1.056,0,0,0,.3.037c-.1.028-.366-.054-.086-.011.419.063.836.131,1.251.215a14.606,14.606,0,0,1,2.392.683,2.008,2.008,0,0,0,2.46-1.4,2.058,2.058,0,0,0-1.4-2.461,20.553,20.553,0,0,0-5.362-1.114,44.1,44.1,0,0,0-4.6-.2,2,2,0,0,0,0,4Z"/><path class="b" d="M275.7,205.549c-1.482-.11-2.966-.172-4.452-.167A7.205,7.205,0,0,0,267,206.429a4.686,4.686,0,0,0-2.046,4.523,5.024,5.024,0,0,0,.858,2.292,8.058,8.058,0,0,0,2.011,1.837c1.3.928,2.611,1.841,3.972,2.681a2,2,0,1,0,2.019-3.454c-1.076-.664-2.124-1.37-3.157-2.1l-.653-.465a3.344,3.344,0,0,0-.707-.5c.016.006.287.258.145.109-.045-.048-.1-.088-.145-.134s-.087-.1-.136-.142c-.153-.129.1.13.105.152a3.651,3.651,0,0,0-.213-.327c-.032-.056-.057-.118-.092-.172-.129-.2.109.354.05.12-.032-.125-.08-.246-.108-.373a1.3,1.3,0,0,0-.038-.19c.007.017.021.414.037.209.01-.125.007-.267,0-.392,0-.212-.022.193-.029.205a1.067,1.067,0,0,0,.054-.231,1.294,1.294,0,0,0,.075-.219c0,.038-.2.348-.082.221.046-.05.271-.394.056-.125s.042-.034.1-.091c.04-.039.084-.075.123-.115.2-.2-.077.1-.137.1a2.6,2.6,0,0,0,.605-.339s-.406.146-.2.092c.057-.015.113-.04.169-.058.134-.042.269-.078.406-.109.08-.017.494-.083.151-.037s.074,0,.156,0c.3-.015.606-.011.909-.012,1.486,0,2.97.057,4.452.167a2.01,2.01,0,0,0,2-2,2.049,2.049,0,0,0-2-2Z"/><path class="b" d="M257.444,195.783c-.368-3.247-.151-7.761,3.012-9.572a3.9,3.9,0,0,1,3.7-.093c1.14.661,1.331,1.665,1.444,3.055a24.718,24.718,0,0,1-.665,8.885,15.345,15.345,0,0,1-.491,1.494c.089-.221-.156.333-.219.452s-.13.24-.2.357c0,0-.341.509-.153.264a2.1,2.1,0,0,1-1.021.856c.112-.053-.421.131-.586.159a6.1,6.1,0,0,1-.971.005,3.45,3.45,0,0,1-2.377-1.524,10.276,10.276,0,0,1-1.468-4.338,2.066,2.066,0,0,0-2-2,2.011,2.011,0,0,0-2,2c.505,3.859,1.914,8.139,5.971,9.515a7.015,7.015,0,0,0,5.817-.572,8.13,8.13,0,0,0,3.066-4.11,25.706,25.706,0,0,0,1.31-11.288c-.19-2.466-.659-4.673-2.754-6.218a7.783,7.783,0,0,0-6.231-1.228c-6.108,1.338-7.788,8.525-7.179,13.9a2.06,2.06,0,0,0,2,2A2.013,2.013,0,0,0,257.444,195.783Z"/><path class="b" d="M256.594,176.347a87.81,87.81,0,0,0-14.77-6.688q-4.656-1.776-9.342-3.473-2.174-.792-4.351-1.575c-1.181-.425-2.747-1.321-4.013-1.321-.972,0-2.024.865-2.854,1.313q-1.392.753-2.822,1.434a56.254,56.254,0,0,1-5.537,2.28,59.239,59.239,0,0,1-11.722,2.85,55.736,55.736,0,0,1-23.544-1.85,62.617,62.617,0,0,1-11.623-4.828c-.977-.531-1.939-1.353-3.116-1.092a29.079,29.079,0,0,0-3.125,1.046q-3.09,1.075-6.136,2.275a127.641,127.641,0,0,0-21.55,10.475,42.794,42.794,0,0,0-8.761,7.031,26.991,26.991,0,0,0-5.546,9.459c-2.557,7.246-3.071,15.1-3.808,22.685-.126,1.3-.251,2.6-.409,3.9-.034.281-.071.562-.108.842l-.069.524c-.014.109-.029.218-.043.327-.041.3.044-.328,0-.006q-.447,3.31-.913,6.617-.864,6.186-1.744,12.369-.054.372-.106.744l3.857,1.063,0-.021a2.067,2.067,0,0,0-1.4-2.46,2.014,2.014,0,0,0-2.46,1.4l0,.021a2.067,2.067,0,0,0,1.4,2.46,2.014,2.014,0,0,0,2.46-1.4c1.107-7.738,2.357-15.481,3.214-23.251.887-8.036,1.181-16.288,3.739-24.026a23.153,23.153,0,0,1,5.817-9.5,46.417,46.417,0,0,1,9.5-6.882,142.619,142.619,0,0,1,27.256-11.828l-1.541-.2a61.862,61.862,0,0,0,49.562,5.781,64.5,64.5,0,0,0,13.143-5.816l-1.541.2c5.688,2.036,11.372,4.086,17.017,6.237a82.65,82.65,0,0,1,13.972,6.345c2.2,1.347,4.214-2.111,2.019-3.454Z"/><path class="b" d="M186.477,134.976a15.784,15.784,0,0,0,7.6,1.76,12.377,12.377,0,0,0,7.675-2.266,2.012,2.012,0,0,0,0-2.829,2.052,2.052,0,0,0-2.829,0c.609-.474.143-.116-.014-.015s-.309.187-.469.271c-.083.044-.168.083-.251.125-.311.161.027-.083.086-.028a5,5,0,0,0-.647.235,11.544,11.544,0,0,1-1.81.413c.3-.045-.039,0-.165.014-.177.017-.355.032-.533.044-.429.027-.858.038-1.287.036-.384,0-.769-.016-1.152-.042-.176-.012-.352-.026-.528-.044-.025,0-.664-.093-.247-.026a13.022,13.022,0,0,1-1.691-.376c-.237-.07-.468-.155-.7-.235-.509-.174.3.155-.158-.062-.29-.137-.576-.279-.86-.429a2,2,0,1,0-2.018,3.454Z"/><path class="b" d="M193.047,117.089a35.62,35.62,0,0,1,.837,3.833l-.071-.532a2.34,2.34,0,0,1,.014.529l.072-.531a1.284,1.284,0,0,1-.059.237l.2-.477a.952.952,0,0,1-.084.153l.313-.405a.807.807,0,0,1-.125.123l.4-.312a2.431,2.431,0,0,1-.3.16l.478-.2a2.278,2.278,0,0,1-.512.149l.532-.072a2.037,2.037,0,0,1-.481,0l.532.071c-.181-.025-.359-.069-.54-.094a1.512,1.512,0,0,0-.8-.035,1.492,1.492,0,0,0-.744.237,2,2,0,0,0-.717,2.736,1.915,1.915,0,0,0,1.2.92c.415.055.818.161,1.241.18a3.972,3.972,0,0,0,1.832-.437,2.653,2.653,0,0,0,1.468-1.747,4.379,4.379,0,0,0-.019-1.879c-.208-1.234-.494-2.458-.811-3.669a2,2,0,1,0-3.857,1.063Z"/><path class="b" d="M172.815,106.226c-.64,2.08-.223,6.865,3.718,7.272,5.208-.031,5.485-5.816,3.732-8.536C178.829,102.735,174.609,101.809,172.815,106.226Z"/><path class="b" d="M214.52,106.226c.64,2.08.223,6.865-3.717,7.272-5.208-.031-5.485-5.816-3.732-8.536C208.506,102.735,212.727,101.809,214.52,106.226Z"/></svg>