<?xml version="1.0" encoding="utf-8"?>
<!-- Uploaded to: SVG Repo, www.svgrepo.com, Generator: SVG Repo Mixer Tools -->
<svg width="800px" height="800px" viewBox="-13.73 0 326.261 326.261" xmlns="http://www.w3.org/2000/svg"><defs><style>.a{fill:#211715;}.b{fill:#b3b3b3;}.c{fill:#ffffff;}.d{fill:#957f6e;}</style></defs><path class="a" d="M259.122,139.355a2.8,2.8,0,0,0-1.543-3.553c-.7-.3-1.424-.6-2.152-.892a3.167,3.167,0,0,0-4.1,1.794c-2.339,5.93-5.817,14.965-7.081,18.437l-1.726,4.381a14.348,14.348,0,0,1,4.114-1.345,26.753,26.753,0,0,1,5.606-.423c.39-.938.694-1.672.694-1.672C254.721,151.541,257.364,144.132,259.122,139.355Z"/><path class="a" d="M286.651,45.106c-3.7,9.746-7.27,19.539-10.858,29.325q-7.615,20.78-15.067,41.618c-2.215,6.226-4.419,12.457-6.531,18.719-.989,2.934,3.645,4.193,4.629,1.276,4.152-12.313,8.586-24.534,13.007-36.753Q279,79.488,286.3,59.737c1.648-4.456,3.294-8.913,4.979-13.355A2.419,2.419,0,0,0,289.6,43.43a2.453,2.453,0,0,0-2.953,1.676Z"/><path class="b" d="M296,40.1c-.124.306-.768,1.89-1.828,4.495a2.7,2.7,0,0,1-3.5,1.5l-3.043-1.219a2.7,2.7,0,0,1-1.5-3.5c1.032-2.61,1.368-3.449,1.789-4.493.937-2.33,4.03-4.408,6.037-3.746C295.679,33.71,297.1,37.4,296,40.1Z"/><path class="a" d="M293.684,39.466q-.371.915-.743,1.829-.358.882-.718,1.764c-.059.147-.119.293-.178.44-.278.689.139-.145-.059.128-.182.251-.006.353.041.012l-.114.125q-.288.264.106-.05c-.018.048-.26.161-.281.175-.453.3.351-.169.038-.024-.484.225.092-.065.067.017-.012.037-.348-.031-.336,0-.035-.094.52.155.132.006-.187-.071-.379-.129-.567-.2-.391-.154-.781-.313-1.172-.47s-.78-.318-1.172-.47c-.1-.038-.431-.233-.055-.016a1.527,1.527,0,0,1-.3-.169l.212.172a2.127,2.127,0,0,1-.183-.172c-.191-.289.258.516.015.029-.006-.013-.167-.247-.157-.29.131.321.155.356.075.107l-.037-.162.043.308a2.512,2.512,0,0,1,0-.336c.038-.013-.167.621-.008.132.1-.3.212-.6.33-.9q.346-.875.693-1.747.225-.567.452-1.134a5.5,5.5,0,0,0,.383-.954c-.012.069-.283.561-.067.17.07-.126.133-.256.206-.38.1-.166.582-.718.19-.314.214-.22.4-.455.628-.665.089-.084.182-.164.274-.245.445-.4-.4.248.095-.071.253-.162.5-.324.767-.462a1.671,1.671,0,0,0,.314-.151c-.159.206-.371.127-.1.056.155-.04.319-.085.472-.133.326-.1-.02.139-.174.009a2.524,2.524,0,0,0,.3-.018c.553-.005.029.088-.059-.033l.138.032q.389.123-.223-.114c0,.005.319.186.314.187-.065.015-.435-.416-.185-.124a2.663,2.663,0,0,0,.285.308c-.243-.053-.263-.417-.067-.062.076.139.165.27.239.411a1.413,1.413,0,0,1,.18.371c-.076-.525-.06-.126,0,.068.093.283.149.573.223.862.148.581-.01-.52.016.083.008.184.025.366.026.55,0,.122,0,.245-.007.368,0,.092-.011.183-.021.275q-.027.275.026-.184a2.645,2.645,0,0,1-.3,1.054,2.41,2.41,0,0,0,1.677,2.952,2.467,2.467,0,0,0,2.952-1.676c1.17-3.05.215-7.541-2.626-9.4-3.185-2.085-7.258.492-9.163,3.127A14.751,14.751,0,0,0,285,37.729a14.242,14.242,0,0,0-1.465,4.489,5.093,5.093,0,0,0,2.876,4.729c.95.437,1.945.792,2.916,1.181a5.82,5.82,0,0,0,3.318.452,5,5,0,0,0,2.66-1.422,9.47,9.47,0,0,0,1.714-3.239q.647-1.588,1.292-3.177a2.408,2.408,0,0,0-1.676-2.952A2.474,2.474,0,0,0,293.684,39.466Z"/><path class="c" d="M219.971,206c1.044-13.8,1.544-27.224,4-31.027,1.775-2.746,3.882-4.64,5.6-6.695a13.079,13.079,0,0,0,3.037-5.774c.812-3.712,2.783-8.584,6.727-8.816,2.613-.153,3.422,1.842,3.77,3.016,0,0,.254.858.662,2.25a16.325,16.325,0,0,1,2.859-.779c6.838-1.254,14.308.259,14.551,3.8.312,1.757-.141,3.318-1.526,6.09a6.956,6.956,0,0,1,1.534,4.611,1.24,1.24,0,0,1-.365.84l-.593,1.787a4.557,4.557,0,0,1,4.475,1.376c1.4,1.537,2.472,4.852.779,6.061-.744.532-1.4,1.069-2.04,1.589l.1-.014c2.842-.986,6.788,1.521,6.553,4.118-.18,1.993-1.759,3.851-3.39,5.144-.078.062-.156.124-.235.185l-1.164,1.932a45.409,45.409,0,0,1-10.84,12.264c-1.227.962-2.5,1.862-3.688,2.873a25.22,25.22,0,0,0-5.009,5.813s-.416.724-.962,1.678c-4.944-1.829-18.011-6.722-25.107-10.087C219.86,206.978,219.971,206,219.971,206Z"/><path class="a" d="M253.937,188.726c-1.634,2.26-.692,5.806.929,7.793,1.775,2.177,5.454,2.815,8.038,2.016a14.122,14.122,0,0,0,4.232-2.279,17.111,17.111,0,0,0,3.423-3.168,8.545,8.545,0,0,0,1.931-4.552,5.45,5.45,0,0,0-1.246-3.742,7.953,7.953,0,0,0-8.333-2.8,2.4,2.4,0,1,0,1.276,4.628c.1-.03.707-.244.368-.122-.284.1.162-.009.3-.01.257,0,.65.055.174-.028a6.854,6.854,0,0,1,.717.159c.178.051.349.119.525.178-.531-.177.04.035.178.111.188.1.364.22.544.337.053.034.265.227.044.028-.238-.215.055.058.1.1.141.141.273.3.419.437-.02-.019-.233-.373-.12-.154a3,3,0,0,0,.176.277,1.89,1.89,0,0,1,.115.212c-.031.026-.139-.477-.09-.211a1.248,1.248,0,0,0,.088.3c.105.212.01-.419-.018-.186-.018.153-.1.589.023.167-.061.206-.106.42-.163.628-.024.084-.177.411,0,.04-.047.1-.1.2-.149.3a7.547,7.547,0,0,1-.471.775c-.065.095-.131.19-.2.281.032-.041.192-.236.013-.033s-.358.408-.549.6a14.2,14.2,0,0,1-1.192,1.069c-.028.023-.354.276-.1.084-.1.076-.2.15-.3.225-.234.173-.47.343-.71.506a13.557,13.557,0,0,1-1.487.89c-.083.042-.624.277-.324.16a6.083,6.083,0,0,1-.743.243c-.095.024-.194.037-.289.063.436-.12.189-.015.037-.01-.279.009-.552.009-.83,0-.466-.013.258.077-.2-.019-.239-.05-.476-.1-.709-.173-.1-.03-.611-.24-.379-.126.275.136-.09-.057-.155-.093-.109-.061-.212-.138-.323-.2-.263-.139.176.1.156.128-.01.013-.227-.239-.255-.259-.223-.158.193.173.137.18-.041.006-.2-.315-.218-.348-.118-.208-.231-.574-.091-.133-.073-.229-.161-.452-.22-.685-.023-.088-.04-.176-.061-.264-.1-.431-.121-.1-.009.019-.086-.092-.014-.573-.013-.689,0-.292.053-.019,0-.007-.028.183-.028.21,0,.081.01-.051.024-.1.039-.152.134-.277-.284.363-.076.152a2.7,2.7,0,0,0,.195-.307,2.41,2.41,0,0,0-.861-3.284,2.467,2.467,0,0,0-3.284.861Z"/><path class="a" d="M259.367,178.149a4.97,4.97,0,0,1,.821-.355c.174-.056.351-.095.527-.146.049-.014.477-.083.117-.04a5.192,5.192,0,0,1,.827-.014c.384.015-.336-.091.023,0,.174.046.344.09.517.142-.42-.128.127.077.272.158.061.034.409.288.177.107s.1.1.147.146c.118.122.475.559.213.2a7.987,7.987,0,0,1,.5.819c.03.053.23.468.117.215s.064.175.084.234c.081.247.138.5.21.746.126.433.023.117.014,0,.01.132,0,.279.019.411s-.08.438.036-.05l-.039.185q-.107.326,0,.06c-.031-.067.069-.185-.039.036.221-.454.169-.127.023-.075.244-.086-.131.086-.184.124-.25.182-.493.378-.738.568-.633.494-1.251,1.007-1.876,1.511-.744.6-1.67,1.139-2.52,1.756-.759.55-1.5,1.131-2.247,1.692a30.438,30.438,0,0,1-2.618,1.808c-.167.1-.34.186-.506.284-.556.329.259-.078-.058.041-.139.052-.561.1-.094.056a7.582,7.582,0,0,1-.892.007c-.465-.009-.172-.018-.057,0-.195-.034-.387-.076-.578-.127-.152-.04-.3-.089-.451-.138-.234-.075.182.132-.173-.074-.129-.076-.259-.149-.388-.225-.364-.214.051.082-.1-.092-.049-.057-.327-.392-.138-.139s-.143-.259-.141-.257c-.047-.067-.2-.411-.03,0A3.623,3.623,0,0,1,250,187.3a4.207,4.207,0,0,1-.1-.444c.069.42.014-.1.015-.191,0-.052.047-.549.009-.3-.032.208.11-.392.131-.453a7.68,7.68,0,0,1,.6-1.022,2.42,2.42,0,0,0-.861-3.283,2.452,2.452,0,0,0-3.284.861c-2.349,3.305-1.623,8.363,2.213,10.217a8.327,8.327,0,0,0,5.574.709,11.015,11.015,0,0,0,3.32-1.814c1.06-.747,2.079-1.55,3.119-2.325,1.214-.9,2.494-1.685,3.679-2.636,1.487-1.194,3.457-2.264,4.078-4.17a7.417,7.417,0,0,0-.692-5.4,7.518,7.518,0,0,0-4.133-3.854,8.379,8.379,0,0,0-6.728.818,2.4,2.4,0,1,0,2.423,4.145Z"/><path class="a" d="M252.545,183.573c3.2-2.591,6.262-5.334,9.448-7.934,1.739-1.419,1.846-3.4,1.328-5.471a7.5,7.5,0,0,0-3.586-5c-4.662-2.43-9.548.948-13.045,3.915-3.179,2.7-7.1,6.893-6.3,11.426a7.419,7.419,0,0,0,4.818,5.686c2.831.8,5.258-.935,7.336-2.619a2.416,2.416,0,0,0,0-3.394,2.456,2.456,0,0,0-3.394,0c-.142.116-.284.232-.428.345-.308.243.244-.174-.1.073a10.5,10.5,0,0,1-.989.654,2.019,2.019,0,0,1-.767.323.462.462,0,0,1-.328.015,1.617,1.617,0,0,1-.416-.265c-.062-.059-.615-.69-.425-.428a4.97,4.97,0,0,1-.324-.525c-.044-.08-.244-.553-.115-.209-.057-.152-.092-.31-.144-.463-.151-.439-.059.19-.061-.3,0-.156-.008-.307.005-.463-.034.416-.008.056.029-.035.125-.31.244-.693.3-.819a11.4,11.4,0,0,1,1.236-2.11c-.165.223.1-.124.109-.136.145-.179.3-.352.448-.523.285-.322.579-.635.879-.943.611-.63,1.249-1.235,1.915-1.807a24.255,24.255,0,0,1,4.207-2.827c.189-.1.378-.2.569-.3.023-.012.5-.206.194-.1.163-.059.33-.093.493-.147.687-.23-.159-.018.249-.062.214-.024.427-.01.641-.023.043,0,.477.024.123-.017a3.739,3.739,0,0,1,.494.105c.027.007.668.263.363.11a4.029,4.029,0,0,1,.432.249c-.248-.167.067.054.1.09-.029-.028.447.538.22.225s.138.26.137.26c.071.126.134.256.2.385-.177-.359-.008-.029.019.051a9.955,9.955,0,0,1,.323,1.095c0-.007.1.7.066.322-.038-.359,0,.275,0,.283,0,.121-.007.24-.016.36,0-.06.1-.549-.01-.177-.018.058.327-.674.343-.636a5.249,5.249,0,0,1-.442.357c-.293.238-.584.479-.874.72-2.9,2.415-5.731,4.909-8.662,7.286a2.416,2.416,0,0,0,0,3.394A2.456,2.456,0,0,0,252.545,183.573Z"/><path class="a" d="M245.425,156.068a6.392,6.392,0,0,0-3.8-4.451,7.081,7.081,0,0,0-6.812,1.511,13.208,13.208,0,0,0-3.554,5.52c-.739,1.922-.926,4.046-1.937,5.853-2.107,3.767-6.127,6.221-7.911,10.208-1.634,3.65-1.943,7.907-2.347,11.834-.664,6.471-1,12.973-1.49,19.459a2.42,2.42,0,0,0,2.4,2.4,2.448,2.448,0,0,0,2.4-2.4c.395-5.262.709-10.53,1.151-15.789a70.2,70.2,0,0,1,1.568-11.492,17.408,17.408,0,0,1,.553-1.787c.163-.438.027-.061-.012.021.051-.108.1-.226.161-.331.224-.386.459-.759.716-1.126a51.387,51.387,0,0,1,4.01-4.652,19.812,19.812,0,0,0,3.417-4.856c.847-1.856,1.134-3.852,1.833-5.757.546-1.489,1.463-3.319,2.931-3.971a1.806,1.806,0,0,1,1.569,0c-.209-.119.086.106.11.133-.2-.232.172.3.187.322.036.066.195.429.039.051.077.186.134.382.193.574.9,2.945,5.538,1.689,4.628-1.276Z"/><path class="a" d="M242.291,168.015c-.412,3.476-1.939,6.755-2.941,10.08-1.08,3.58-1.628,7.378-.563,11.03.864,2.959,5.5,1.7,4.629-1.276-.939-3.219-.1-6.466.905-9.564a53.483,53.483,0,0,0,2.77-10.27,2.414,2.414,0,0,0-2.4-2.4,2.458,2.458,0,0,0-2.4,2.4Z"/><path class="a" d="M248.451,164.851a17.589,17.589,0,0,1-4.2.138c-.125-.01-.249-.024-.373-.036-.408-.04.343.059-.008,0-.168-.027-.337-.053-.5-.09a3.027,3.027,0,0,1-.859-.291,1.409,1.409,0,0,1-.493-.6c.061.163-.074-.7-.053-.254a1.544,1.544,0,0,1,0-.366c.09-.4-.066.315.027-.092a1.36,1.36,0,0,1,.294-.62,4.566,4.566,0,0,1,.838-.693c2.344-1.431,5.312-1.774,8.037-1.8a19.2,19.2,0,0,1,3.865.294,9.772,9.772,0,0,1,2.929.957c.137.079.739.537.4.24.091.081.509.528.348.32-.193-.251.029.026.027.057-.018.291.2.016-.01-.092a.9.9,0,0,1,.076.253q.062.268-.015-.2l.086.638c-.026-.283.006.41,0,.523a1.311,1.311,0,0,1-.059.559,11.305,11.305,0,0,1-.813,2.3,2.47,2.47,0,0,0,.861,3.283,2.419,2.419,0,0,0,3.284-.861,12.235,12.235,0,0,0,1.515-5.8c-.015-.236-.051-.47-.081-.7a3.2,3.2,0,0,0-.059-.438,4.619,4.619,0,0,0-.237-1,5.6,5.6,0,0,0-1.314-2.035c-2.458-2.439-6.5-3-9.793-3.091-3.858-.111-8.419.37-11.7,2.59-2.934,1.987-4.51,5.861-2.253,9.018,2.523,3.531,7.736,3.115,11.5,2.519a2.418,2.418,0,0,0,1.676-2.953,2.46,2.46,0,0,0-2.952-1.676Z"/><path class="a" d="M263.24,194.479A43.848,43.848,0,0,1,254.3,205.01c-1.867,1.6-3.935,2.955-5.76,4.606a28.152,28.152,0,0,0-4.834,5.814c-1.66,2.615,2.492,5.026,4.145,2.422a23.687,23.687,0,0,1,4.634-5.327c1.866-1.594,3.909-2.962,5.748-4.591a48.148,48.148,0,0,0,9.155-11.032c1.608-2.647-2.541-5.062-4.145-2.423Z"/><path class="d" d="M158.264,168.3c8.58-1.87,14.56-10.47,14.5-18a53.434,53.434,0,0,0-2.94-17.09c-2.41-7.51-7.094-22.765-7.424-50.045.672-7.677-.026-18.767-.329-23.029-1.053-14.775-7.659-31.275-17.164-40.445-4.11-3.965-5.3-5.816-9.777-8.244l-10.736-5.24c-6.608-2.546-12.752-3.77-24.347-3.77-19.011,0-35.932,9.794-43.441,16.982C44.15,31.348,36.247,53.124,37.244,83.161c.01,21.89-1.66,37.68-4,46.65-.33,1.27-.65,2.72-.95,4.28a56.023,56.023,0,0,0-2.73,16.3c-.09,4.74.73,10.07,4.53,12.92,2.53,2.22,6.83,4.88,11.46,4.99Z"/><path class="c" d="M79.891,148.333a43.16,43.16,0,0,0,.313-6.9,41.59,41.59,0,0,1-15.242-11.915,49.422,49.422,0,0,1-9.452-18.53,11.656,11.656,0,0,1-7.488-2.67,18.445,18.445,0,0,1-4.768-6.257A29.019,29.019,0,0,1,40.3,86.687a9.677,9.677,0,0,1,1.013-3.894,6.85,6.85,0,0,1,4.923-3.273,7.239,7.239,0,0,1,5.434,1.407c3.512-1.432,13.3-5.935,15.9-7.475a117.746,117.746,0,0,0,12.257-8.245,50.427,50.427,0,0,0,6.459-1.183,49.1,49.1,0,0,0,4.8-1.267c12.332-3.995,26.182-12.527,32.405-20.135,1.316,7.067,3.342,14.072,10.426,24.128,3.445,4.889,8.445,11,15.438,14.468a7.252,7.252,0,0,1,5.8-1.7,6.85,6.85,0,0,1,4.923,3.273,9.677,9.677,0,0,1,1.013,3.894,29.01,29.01,0,0,1-2.957,15.378,18.445,18.445,0,0,1-4.768,6.257,12.223,12.223,0,0,1-5.685,2.562l-.973.151c-.466,1.746-.991,3.217-1.248,4-1.7,4.627-11.481,20.983-23.632,26.2-.021,3.276-.093,7.052,1.059,9.886.87,2.15,4.95,5.34,9.24,8.24,0,0,2.2,34.13-31.466,34.13-32.111,0-31.184-34.34-31.184-34.34,4.58-2.84,8.83-5.93,9.68-8.03A12.939,12.939,0,0,0,79.891,148.333Z"/><path class="a" d="M34.844,83.161c0,12.76-.35,25.861-2.356,38.363-.332,2.07-.717,4.134-1.2,6.176-.308,1.315-.66,2.617-.945,3.938-.413,1.92-1,3.777-1.474,5.684A59.505,59.505,0,0,0,27.2,149.206a26.976,26.976,0,0,0,1.017,9.5c2.306,6.953,10.221,11.708,17.339,12,3.089.124,3.083-4.676,0-4.8a15.909,15.909,0,0,1-8.414-3.219,10.55,10.55,0,0,1-4.456-5.761,25.929,25.929,0,0,1-.627-8.9A52.863,52.863,0,0,1,33.924,137a151.887,151.887,0,0,0,4.969-30.236c.554-7.853.75-15.728.751-23.6,0-3.089-4.8-3.094-4.8,0Z"/><path class="a" d="M160,83.164a184.05,184.05,0,0,0,4.279,39.148c.824,3.558,1.809,7.074,2.912,10.555a74.925,74.925,0,0,1,2.452,9.246,31.935,31.935,0,0,1,.582,10.215,16.963,16.963,0,0,1-12.6,13.662c-3.01.691-1.736,5.32,1.276,4.628a21.591,21.591,0,0,0,14.689-12.811c2.842-6.772,1.467-14.874-.408-21.737-1.1-4.022-2.489-7.951-3.529-11.992a143.394,143.394,0,0,1-3.037-15.412,198.654,198.654,0,0,1-1.813-25.5c-.041-3.086-4.841-3.095-4.8,0Z"/><path class="a" d="M151.047,82.915a4.753,4.753,0,0,1,6.778.793A8.138,8.138,0,0,1,158.771,88a25.469,25.469,0,0,1-.3,5.263C157.4,99.609,154.1,107.34,147.04,108.57a2.42,2.42,0,0,0-1.676,2.952,2.455,2.455,0,0,0,2.952,1.677c9.711-1.692,14.351-12.708,15.157-21.474.389-4.242.281-9.548-3.3-12.474a9.712,9.712,0,0,0-12.518.27,2.42,2.42,0,0,0,0,3.394,2.45,2.45,0,0,0,3.394,0Z"/><path class="a" d="M145.2,105.486a24.092,24.092,0,0,1-1.127,6.024c-.228.771-.48,1.535-.736,2.3-.078.233-.158.464-.238.7-.161.469-.095.235-.033.1a50.732,50.732,0,0,1-3.237,5.924A57.5,57.5,0,0,1,127,135.322a24.372,24.372,0,0,1-9.466,4.786c-3.009.694-1.736,5.323,1.276,4.628,7.306-1.685,13.425-6.942,18.242-12.459a62.653,62.653,0,0,0,10.014-14.913A32.1,32.1,0,0,0,150,105.486c.106-3.089-4.694-3.085-4.8,0Z"/><path class="a" d="M53.732,79.521a9.712,9.712,0,0,0-12.518-.27c-3.583,2.926-3.691,8.232-3.3,12.474.805,8.766,5.445,19.782,15.156,21.474a2.47,2.47,0,0,0,2.952-1.677,2.42,2.42,0,0,0-1.676-2.952c-7.063-1.23-10.361-8.961-11.434-15.306a25.542,25.542,0,0,1-.3-5.263,8.277,8.277,0,0,1,.946-4.293,4.747,4.747,0,0,1,6.778-.793,2.464,2.464,0,0,0,3.394,0,2.42,2.42,0,0,0,0-3.394Z"/><path class="a" d="M52.177,107.443c3.071,14.516,11.639,28.664,25.318,35.38a34.3,34.3,0,0,0,11.661,3.341,2.416,2.416,0,0,0,2.4-2.4,2.454,2.454,0,0,0-2.4-2.4c-13.461-1.4-24.472-13.04-29.313-25.052a60.68,60.68,0,0,1-3.037-10.145c-.639-3.02-5.267-1.742-4.629,1.276Z"/><path class="a" d="M125.032,3.9C116.282.547,106.723-.331,97.408.1A69.9,69.9,0,0,0,66.686,9.229a54.421,54.421,0,0,0-17.62,15.26,69.616,69.616,0,0,0-10.49,22.72c-3.2,11.664-4.114,23.907-3.731,35.96.1,3.081,4.9,3.094,4.8,0-.578-18.2,1.656-37.864,11.7-53.526a47.174,47.174,0,0,1,14.8-14.5A66.147,66.147,0,0,1,93.511,5.219a78.612,78.612,0,0,1,17.938.183,51.133,51.133,0,0,1,12.307,3.123,2.418,2.418,0,0,0,2.952-1.676A2.453,2.453,0,0,0,125.032,3.9Z"/><path class="a" d="M164.8,83.169a126.342,126.342,0,0,0,.059-16.465,106.377,106.377,0,0,0-1.439-14.626c-2.077-11.125-6.633-22.252-13.938-30.981-1.922-2.3-4.129-4.346-6.246-6.459a30.6,30.6,0,0,0-6.895-5.259c-2.708-1.491-5.133,2.653-2.423,4.144a24.493,24.493,0,0,1,5.455,4.044c1.867,1.829,3.779,3.648,5.54,5.579A52.3,52.3,0,0,1,153.37,36.28a70.924,70.924,0,0,1,5.11,15.5A88.545,88.545,0,0,1,160,65.51a130.9,130.9,0,0,1,0,17.659,2.419,2.419,0,0,0,2.4,2.4,2.449,2.449,0,0,0,2.4-2.4Z"/><path class="a" d="M119.424,141.234a50.569,50.569,0,0,0,.209,6.337,12.522,12.522,0,0,0,1.69,5.667c2.372,3.425,6.2,5.888,9.589,8.188a2.4,2.4,0,1,0,2.423-4.144c-1.614-1.095-3.218-2.214-4.728-3.45-.661-.541-1.308-1.1-1.922-1.7-.268-.26-.53-.526-.78-.8-.127-.14-.25-.283-.371-.428-.245-.294.264.432-.066-.091-.145-.23-.29-.45-.413-.693-.132-.26.131.388-.006-.038-.072-.226-.152-.448-.218-.676a13.87,13.87,0,0,1-.449-2.294,53.655,53.655,0,0,1-.158-5.88c.019-3.089-4.78-3.093-4.8,0Z"/><path class="a" d="M77.8,141.444a51.44,51.44,0,0,1-.165,5.757,14.206,14.206,0,0,1-.482,2.362c-.067.222-.142.439-.219.658.054-.152.135-.232.017-.045-.085.133-.549.819-.213.393-2.189,2.771-5.51,4.655-8.48,6.5a2.4,2.4,0,1,0,2.423,4.144c1.939-1.206,3.852-2.459,5.668-3.846a20.629,20.629,0,0,0,4.277-4.045,11.19,11.19,0,0,0,1.7-5.211,47.924,47.924,0,0,0,.278-6.67c-.02-3.088-4.82-3.094-4.8,0Z"/><path class="a" d="M93.081,47.868A65.225,65.225,0,0,1,77.3,64.133,99.35,99.35,0,0,1,60.138,74.5q-2.475,1.17-4.972,2.3-1.095.493-2.2.978-.484.215-.971.424l-.337.145c-.7.3.4-.165-.24.1A2.48,2.48,0,0,0,49.746,81.4,2.415,2.415,0,0,0,52.7,83.079a147.137,147.137,0,0,0,15.811-7.4A97.7,97.7,0,0,0,88.549,60.808a62.5,62.5,0,0,0,8.677-10.517c1.69-2.6-2.464-5-4.145-2.423Z"/><path class="a" d="M79.912,67.594c13.577-1.611,26.744-7.776,37.524-16.067a48.18,48.18,0,0,0,7.581-7.006,2.465,2.465,0,0,0,0-3.394,2.419,2.419,0,0,0-3.394,0c-5.026,5.962-11.9,10.37-18.734,13.98-7.144,3.774-14.908,6.73-22.977,7.687a2.475,2.475,0,0,0-2.4,2.4,2.415,2.415,0,0,0,2.4,2.4Z"/><path class="a" d="M150.561,79.145c-7.2-3.637-12.4-10.057-16.68-16.73A55.637,55.637,0,0,1,126,43.075a2.4,2.4,0,1,0-4.628,1.276,57.21,57.21,0,0,0,5.508,15.626A69.187,69.187,0,0,0,138.6,76.214a37.281,37.281,0,0,0,9.536,7.076c2.75,1.39,5.183-2.75,2.422-4.145Z"/><path class="b" d="M98.652,242.892q1.313,3.573,2.588,7.1c4.929-13.765,8.553-23.512,13.406-37.041,6.414-17.878,14.064-38.474,18.539-56.808.63.439,4.491,3.054,4.491,3.054q.4.306.786.611c9.852,6.278,23.425,9.714,34.332,14.982,2.972,1.436,6.461,2.11,8.713,4.523a25.155,25.155,0,0,1,5.24,8.551c7.107,18.555,7.988,28.705,15.874,48.313,2.935-7.009,5.688-13.827,8.73-21.289,9.682,5.1,25.109,12.166,34.788,14.265-4.825,15.449-9.666,32.069-16.467,47.541-4.725,10.749-11.193,20.768-22.548,23.756a29,29,0,0,1-25.071-4.605c-6.134-4.482-12.89-13.562-17.14-18.93l-.244-.308v2.817c0,6.94,2.54,30.24,3.58,44.44H2.406C5.369,264.9,8.137,213.641,13.737,194.972c1.611-5.369,3.64-10.116,6.325-12.263s7.148-3.574,10.25-5.073c9.043-4.367,20.946-9.714,28.543-14.3a60.167,60.167,0,0,1,4.637-3.929l4.592-3.111.08-.056c5.942,17.676,12.786,38.087,19.18,55.908C90.936,222.164,94.889,232.653,98.652,242.892Z"/><path class="c" d="M100.305,181.952c-.215,0-.428,0-.639,0a101.58,101.58,0,0,1-23.18-3.331l-.886-.315c3.881,11.444,7.894,23.113,11.744,33.843,4.427,12.343,9.4,25.41,13.9,37.838,4.929-13.765,8.553-23.512,13.406-37.041,4.059-11.316,8.615-23.721,12.546-35.952l-2.395.936C117.782,180.722,107.655,181.9,100.305,181.952Z"/><path class="c" d="M246.25,218.848c-3.289-1.21-20.916-7.7-28.167-11.413-.826,1.653-2.561,5.718-3.622,7.9l-.458.926c8.581,4.366,20.294,9.633,29,12.1.244-.61.42-1.053.441-1.114.922-2.745,2.752-7.49,3.111-8.283Z"/><path class="a" d="M245.755,227.881c.627-1.55,1.2-3.12,1.773-4.69.248-.679.494-1.359.743-2.037.108-.295.216-.591.328-.885.067-.176.388-.932.025-.1a2.453,2.453,0,0,0-1.434-3.526q-6.081-2.24-12.127-4.577a171.22,171.22,0,0,1-15.768-6.706,2.434,2.434,0,0,0-3.284.861c-1.282,2.6-2.363,5.29-3.622,7.9a2.465,2.465,0,0,0,.861,3.284,2.422,2.422,0,0,0,3.284-.861c1.259-2.609,2.339-5.3,3.622-7.9l-3.284.861c5.357,2.728,11.025,4.893,16.62,7.074q6.186,2.412,12.422,4.693l-1.434-3.526c-1.258,2.893-2.17,5.932-3.353,8.857a2.415,2.415,0,0,0,1.676,2.952,2.459,2.459,0,0,0,2.952-1.676Z"/><path class="a" d="M75.848,180.937a93.618,93.618,0,0,0,25.2,3.407c8.146-.133,16.763-1.112,24.392-4.1a2.472,2.472,0,0,0,1.676-2.952,2.417,2.417,0,0,0-2.952-1.676c-7.265,2.844-15.359,3.8-23.116,3.926a88.634,88.634,0,0,1-23.919-3.235c-2.989-.792-4.264,3.837-1.276,4.628Z"/><path class="a" d="M89.586,260.817a6.237,6.237,0,0,1,.738.786l-.375-.486a5.234,5.234,0,0,1,.6,1.013l-.241-.573a4.968,4.968,0,0,1,.338,1.22l-.086-.638a5.4,5.4,0,0,1,0,1.362l.086-.638a5.955,5.955,0,0,1-.393,1.437l.242-.573a4.906,4.906,0,0,1-.576,1.017l.375-.486a4.293,4.293,0,0,1-.757.749l.485-.375a5.166,5.166,0,0,1-1.076.615l.573-.242a6.047,6.047,0,0,1-1.4.375l.638-.085a6.429,6.429,0,0,1-1.634,0l.638.086a5.659,5.659,0,0,1-1.342-.357l.574.242a4.45,4.45,0,0,1-.914-.523l.486.375a5.418,5.418,0,0,1-.89-.888l.375.486a4.671,4.671,0,0,1-.6-1.017l.242.573a4.381,4.381,0,0,1-.257-.962l.085.638a4.747,4.747,0,0,1,0-1.167l-.086.638a5.8,5.8,0,0,1,.4-1.421l-.242.573a7.338,7.338,0,0,1,.924-1.549l-.375.486a4.48,4.48,0,0,1,.715-.735l-.486.375a4.844,4.844,0,0,1,.984-.575l-.573.242a5.715,5.715,0,0,1,1.441-.389l-.638.086a5.767,5.767,0,0,1,1.42,0l-.638-.086a5.138,5.138,0,0,1,1.169.313l-.574-.242a4.368,4.368,0,0,1,.955.557l-.486-.375c.054.042.106.085.157.13a2.554,2.554,0,0,0,1.7.7,2.4,2.4,0,0,0,1.7-4.1,7.131,7.131,0,0,0-4.585-1.75,7.537,7.537,0,0,0-4.182,1.145,8,8,0,0,0-3.358,8.064,6.953,6.953,0,0,0,2.863,4.062,7.776,7.776,0,0,0,10.758-2.454,7.785,7.785,0,0,0,.9-4.164,7.406,7.406,0,0,0-2.4-4.9,2.4,2.4,0,0,0-3.394,3.394Z"/><path class="a" d="M102.125,323.861c2-18.366,4.229-36.676,5.052-55.144a45.153,45.153,0,0,0-.272-8.373,40.7,40.7,0,0,0-2.512-8.677,2.468,2.468,0,0,0-2.952-1.676,2.419,2.419,0,0,0-1.677,2.952,42.8,42.8,0,0,1,2.345,7.612,33.6,33.6,0,0,1,.31,7.158c-.189,4.968-.541,9.932-.885,14.891-.616,8.911-1.6,17.783-2.582,26.66-.541,4.866-1.1,9.73-1.627,14.6a2.416,2.416,0,0,0,2.4,2.4,2.455,2.455,0,0,0,2.4-2.4Z"/><path class="a" d="M140.761,163.927c6.08,3.23,12.576,5.586,19,8.025,3.068,1.166,6.138,2.338,9.139,3.668,1.441.638,2.849,1.347,4.3,1.952,1.343.559,2.739,1.011,4.045,1.655,5.592,2.759,7.561,10.032,9.438,15.448,2.049,5.912,3.767,11.925,5.492,17.937,2.017,7.028,4.2,13.994,6.805,20.828a2.469,2.469,0,0,0,2.952,1.676,2.418,2.418,0,0,0,1.677-2.952c-4.637-12.149-7.585-24.8-11.73-37.1-2.116-6.283-4.2-13.779-9.5-18.218-2.453-2.053-5.533-2.795-8.373-4.128-3.043-1.429-6.133-2.739-9.263-3.966-7.244-2.838-14.669-5.307-21.558-8.967-2.727-1.448-5.155,2.693-2.423,4.145Z"/><path class="a" d="M4.8,323.861C6.246,295.229,7.571,266.565,10,238c.843-9.932,1.8-19.936,3.329-29.551.551-3.457,1.177-6.909,2.03-10.305a60.928,60.928,0,0,1,2.02-6.509c.925-2.469,2.091-5.308,4.169-7.043,2.532-2.114,6.046-3.106,9.013-4.429,3.294-1.469,6.525-3.1,9.783-4.649,6.653-3.16,13.368-6.291,19.695-10.077,2.648-1.584.237-5.736-2.423-4.145-5.718,3.422-11.761,6.295-17.77,9.162-3,1.429-6,2.842-8.994,4.277-2.911,1.4-5.946,2.53-8.832,3.973a15.471,15.471,0,0,0-6.626,5.94,40.854,40.854,0,0,0-3.839,9.259,85.381,85.381,0,0,0-2.29,9.93c-1.712,9.533-2.71,19.2-3.595,28.839-1.193,13-2.064,26.018-2.853,39.042C1.76,289.087.88,306.474,0,323.861c-.156,3.087,4.645,3.079,4.8,0Z"/><path class="a" d="M130.776,155.889c-3.058,12.374-7.1,24.486-11.318,36.5-4.2,11.962-8.535,23.878-12.87,35.791q-3.624,9.959-7.219,19.928a2.422,2.422,0,0,0,1.676,2.952A2.449,2.449,0,0,0,104,249.388c8.595-23.953,17.8-47.735,25.58-71.971,2.146-6.69,4.142-13.43,5.828-20.252.741-3-3.887-4.278-4.629-1.276Z"/><path class="a" d="M118.859,244.566q9.054-12.936,17.487-26.293,4.264-6.762,8.363-13.627c2.667-4.469,5.448-8.93,7.86-13.543a4.475,4.475,0,0,0,.183-4.324,14.031,14.031,0,0,0-2.825-3.164c-2.124-2.092-4.331-4.1-6.547-6.088l-.486,3.77c1.979-1.175,3.93-2.4,5.95-3.509,1.964-1.074,4.766-1.974,4.044-4.847a16.39,16.39,0,0,0-2.846-4.989,39.639,39.639,0,0,0-3.7-4.4,75.307,75.307,0,0,0-12.049-9.541c-2.564-1.737-4.968,2.419-2.422,4.144l2.9,1.963a38.188,38.188,0,0,1,3.424,2.527,52.482,52.482,0,0,1,5.847,5.466,28.189,28.189,0,0,1,2.308,2.9q.5.728.952,1.484.254.423.491.853c.058.1.388.836.386.621l.328-1.211-.163.258.861-.861a41.866,41.866,0,0,1-4.2,2.285c-1.523.882-3.02,1.81-4.534,2.708a2.422,2.422,0,0,0-.486,3.769c1.809,1.625,3.61,3.259,5.365,4.941q1.272,1.217,2.506,2.473c.055.055.511.628.648.668-.082-.024.012-.49,0-.474-.267.526-.579,1.033-.87,1.546q-3.707,6.526-7.563,12.967-7.608,12.7-15.79,25.053-4.693,7.086-9.571,14.049a2.421,2.421,0,0,0,.861,3.283,2.45,2.45,0,0,0,3.284-.861Z"/><path class="a" d="M37.569,323.861c.747-10.132,1.787-20.241,2.661-30.362.344-3.983.7-7.972.867-11.967a54.75,54.75,0,0,0-.426-8.487c-1.976-17.443-5.829-34.6-8.586-51.925-.938-5.893-1.825-11.8-2.806-17.681a93.29,93.29,0,0,0-2.415-11.916c-.9-2.946-5.535-1.69-4.629,1.276a82.177,82.177,0,0,1,2.119,10.158c.875,5.109,1.654,10.234,2.457,15.354,1.412,9,3.051,17.95,4.68,26.914,1.521,8.362,3.021,17.048,4.073,25.281a68.98,68.98,0,0,1,.784,9.22c-.028,3.506-.358,7.019-.643,10.511-.917,11.213-2.109,22.4-2.936,33.624a2.4,2.4,0,0,0,4.8,0Z"/><path class="a" d="M175.315,190.933c-2.481,18.424-4.842,36.823-8.172,55.121-1.55,8.514-3.089,17.042-4.2,25.627a57.152,57.152,0,0,0-.663,8.713c.088,3.55.4,7.1.7,10.637.909,10.947,2.063,21.874,2.869,32.83a2.459,2.459,0,0,0,2.4,2.4,2.42,2.42,0,0,0,2.4-2.4c-.721-9.792-1.717-19.563-2.571-29.343-.585-6.692-1.387-13.415-.658-20.12.862-7.923,2.393-16.211,3.847-24.282,1.6-8.868,3.179-17.729,4.489-26.647.909-6.184,1.746-12.378,2.553-18.576q.483-3.711.955-7.423.2-1.578.405-3.155.087-.68.176-1.359c.029-.217.183-1.372.1-.747a2.485,2.485,0,0,0-1.677-2.953,2.417,2.417,0,0,0-2.952,1.677Z"/><path class="a" d="M65.918,157.085C74.293,182,82.758,206.874,91.9,231.523c2.646,7.139,5.3,14.275,7.871,21.441a2.462,2.462,0,0,0,2.952,1.676,2.421,2.421,0,0,0,1.676-2.952c-4.583-12.768-9.421-25.442-14.028-38.2-4.452-12.331-8.7-24.735-12.9-37.151q-3.475-10.258-6.916-20.527c-.979-2.913-5.617-1.664-4.629,1.276Z"/><path class="a" d="M86.62,242.672Q69.565,218.3,54.758,192.465q-.533-.93-1.062-1.862c-.156-.276-.314-.551-.469-.828-.062-.11-.418-.923-.381-.594.007.063.045.3-.016.351.343-.3.657-.679.976-1q.66-.667,1.331-1.322c2.021-1.972,4.111-3.871,6.212-5.758a2.421,2.421,0,0,0-.486-3.769c-1.514-.9-3.011-1.825-4.534-2.709a41.843,41.843,0,0,1-4.2-2.284l.861.861-.164-.259.328,1.212c0,.18.25-.376.29-.45q.234-.436.481-.866.494-.855,1.039-1.679a30.483,30.483,0,0,1,2.257-3,48.25,48.25,0,0,1,5.76-5.631,33.7,33.7,0,0,1,3.415-2.543l2.9-1.963c2.543-1.723.144-5.883-2.423-4.144A66.591,66.591,0,0,0,54.9,163.909a42.005,42.005,0,0,0-3.635,4.521,17.664,17.664,0,0,0-2.819,5.039c-.731,2.774,1.93,3.7,3.842,4.737,2.093,1.132,4.107,2.405,6.152,3.619l-.485-3.769c-1.984,1.782-3.959,3.575-5.874,5.43-1.734,1.679-4.155,3.486-3.977,6.15a8.365,8.365,0,0,0,1.448,3.39q1.057,1.864,2.128,3.721,1.905,3.3,3.848,6.583,8.094,13.662,16.848,26.918,4.948,7.493,10.1,14.847a2.465,2.465,0,0,0,3.284.861,2.421,2.421,0,0,0,.861-3.284Z"/><path class="a" d="M196.339,256.607c6.121-13.549,11.715-27.318,17.326-41.084l-3.526,1.435q8.611,4.527,17.58,8.336a102.782,102.782,0,0,0,17.782,6.17l-1.676-2.952c-2.942,9.423-5.779,18.882-9,28.216-3.016,8.742-6.156,17.684-10.689,25.776-3.555,6.347-8.479,12.432-15.536,14.972a27.109,27.109,0,0,1-23.79-2.646c-3.782-2.422-6.89-5.827-9.808-9.2s-5.628-6.916-8.393-10.414a2.413,2.413,0,0,0-3.394,0,2.459,2.459,0,0,0,0,3.394c5.236,6.623,10.309,13.735,17.083,18.9a31.721,31.721,0,0,0,25.707,5.666c18.681-3.861,25.891-24.24,31.641-40.061,3.99-10.98,7.327-22.178,10.806-33.325a2.422,2.422,0,0,0-1.676-2.953,97.858,97.858,0,0,1-17-5.842q-8.767-3.727-17.21-8.18a2.447,2.447,0,0,0-3.526,1.434c-5.454,13.383-10.892,26.766-16.842,39.938a2.472,2.472,0,0,0,.861,3.283,2.419,2.419,0,0,0,3.284-.861Z"/><path class="a" d="M92.833,120.339a19.4,19.4,0,0,0,9.349,2.163,15.2,15.2,0,0,0,9.427-2.778,2.412,2.412,0,0,0,0-3.394,2.462,2.462,0,0,0-3.394,0c.726-.565.155-.128-.031-.008s-.382.232-.579.335c-.164.086-.874.368-.221.126-.266.1-.528.2-.8.291a14.03,14.03,0,0,1-2.236.51c.351-.052-.085.006-.221.02-.22.021-.439.04-.659.054-.529.034-1.059.047-1.589.044-.475,0-.949-.019-1.423-.051-.217-.015-.434-.032-.651-.054-.019,0-.8-.11-.324-.035A16.013,16.013,0,0,1,97.4,117.1c-.293-.087-.578-.192-.866-.291-.616-.211.344.179-.212-.083q-.537-.253-1.061-.53a2.453,2.453,0,0,0-3.284.861,2.427,2.427,0,0,0,.861,3.284Z"/><path class="a" d="M100.977,98.3a44,44,0,0,1,1.034,4.732l-.085-.638a2.91,2.91,0,0,1,.017.653l.086-.638a1.558,1.558,0,0,1-.072.294l.242-.574a1.12,1.12,0,0,1-.1.189l.376-.486a.975.975,0,0,1-.155.153l.486-.375a3.27,3.27,0,0,1-.375.2l.573-.242a2.719,2.719,0,0,1-.631.184l.638-.085a2.557,2.557,0,0,1-.593,0l.638.085c-.224-.031-.443-.085-.667-.115a1.812,1.812,0,0,0-.957-.043,1.774,1.774,0,0,0-.892.285,2.4,2.4,0,0,0-.861,3.283,2.3,2.3,0,0,0,1.434,1.1c.507.068,1,.2,1.513.22a4.847,4.847,0,0,0,2.228-.529,3.208,3.208,0,0,0,1.78-2.116,5.328,5.328,0,0,0-.022-2.283c-.258-1.524-.61-3.035-1-4.53a2.4,2.4,0,1,0-4.629,1.276Z"/><path class="a" d="M75.93,84.9c-.79,2.568-.275,8.476,4.59,8.979,6.431-.039,6.773-7.181,4.608-10.539C83.356,80.591,78.145,79.448,75.93,84.9Z"/><path class="a" d="M127.424,84.9c.79,2.568.275,8.475-4.59,8.978-6.43-.039-6.773-7.181-4.608-10.539C120,80.591,125.209,79.448,127.424,84.9Z"/></svg>