<?xml version="1.0" encoding="utf-8"?>
<!-- Uploaded to: SVG Repo, www.svgrepo.com, Generator: SVG Repo Mixer Tools -->
<svg width="800px" height="800px" viewBox="-4.57 0 359.906 359.906" xmlns="http://www.w3.org/2000/svg"><defs><style>.a{fill:#ffffff;}.b{fill:#211715;}.c{fill:#d9d9d9;}.d{fill:#3d8dcc;}</style></defs><path class="a" d="M191.649,213.868a61.1,61.1,0,0,0,4.9-6.794,21.29,21.29,0,0,0,3.45-7.938,14.006,14.006,0,0,0-5.324-12.786,14.82,14.82,0,0,0-15.831-1.578c-3.8,1.887-6.841,5-9.557,8.258a39.934,39.934,0,0,0-6.135,9.4,19.543,19.543,0,0,0-1.63,10.981,12.176,12.176,0,0,0,13.941,10.609,19.751,19.751,0,0,0,7.7-2.748A33.577,33.577,0,0,0,191.649,213.868Z"/><path class="b" d="M193.346,215.565a49.262,49.262,0,0,0,7.887-12.177,15.686,15.686,0,0,0-.086-12.443,17.238,17.238,0,0,0-21.774-9.01,28.1,28.1,0,0,0-10.443,7.838,45.574,45.574,0,0,0-7.676,11.046,21.941,21.941,0,0,0-1.86,14.145,15.177,15.177,0,0,0,7.082,9.723c9.711,5.384,20.613-1.774,26.87-9.122a2.463,2.463,0,0,0,0-3.394,2.42,2.42,0,0,0-3.394,0c-4.31,5.062-11.15,10.9-18.365,9.334a9.65,9.65,0,0,1-6.913-5.782,14.915,14.915,0,0,1-.017-10.553,31.183,31.183,0,0,1,5.638-9.6,35.165,35.165,0,0,1,7.634-7.5,13.169,13.169,0,0,1,9.6-2.324,12.485,12.485,0,0,1,8.093,5.035,11.268,11.268,0,0,1,1.414,10.234,27,27,0,0,1-2.937,5.435,56.783,56.783,0,0,1-4.148,5.721,2.466,2.466,0,0,0,0,3.394A2.42,2.42,0,0,0,193.346,215.565Z"/><path class="a" d="M191.649,140.905a61.1,61.1,0,0,0,4.9-6.794,21.29,21.29,0,0,0,3.45-7.938,14,14,0,0,0-5.324-12.786,14.82,14.82,0,0,0-15.831-1.578c-3.8,1.887-6.841,5-9.557,8.258a39.934,39.934,0,0,0-6.135,9.395,19.541,19.541,0,0,0-1.63,10.981,12.178,12.178,0,0,0,13.941,10.609,19.751,19.751,0,0,0,7.7-2.748A33.6,33.6,0,0,0,191.649,140.905Z"/><path class="a" d="M191.649,180.907a61.09,61.09,0,0,0,4.9-6.793,21.294,21.294,0,0,0,3.45-7.939,14.006,14.006,0,0,0-5.324-12.786,14.822,14.822,0,0,0-15.831-1.577c-3.8,1.887-6.841,5-9.557,8.258a39.913,39.913,0,0,0-6.135,9.4,19.538,19.538,0,0,0-1.63,10.98,12.176,12.176,0,0,0,13.941,10.609,19.751,19.751,0,0,0,7.7-2.748A33.557,33.557,0,0,0,191.649,180.907Z"/><path class="a" d="M170.391,65.461a60.753,60.753,0,0,0-4.9,6.794,21.29,21.29,0,0,0-3.45,7.938,14,14,0,0,0,5.324,12.786A14.82,14.82,0,0,0,183.2,94.556c3.8-1.887,11.492-9.023,14.208-12.28a76.815,76.815,0,0,0,7.222-11.028,18.709,18.709,0,0,0,1.534-11.487,11.955,11.955,0,0,0-5.891-8.6,12.971,12.971,0,0,0-7.954-1.5,19.741,19.741,0,0,0-7.7,2.748C181.361,54.331,172.837,62.561,170.391,65.461Z"/><path class="a" d="M14.648,280.32c-7.321-15.095-3.332-33.6-4.1-50.821C9.436,204.61,7.658,181.943,3.1,144.388c-.911-7.508-1.516-15.023,2-21.717s11.364-9.251,18.666-7.283c6.6,1.778,10.556,5.887,13.066,12.244L158.49,256.551a288.751,288.751,0,0,1-54.054,41.837Z"/><path class="b" d="M105.648,300.46a287.726,287.726,0,0,0,43.387-31.866q5.693-5.048,11.152-10.346c2.225-2.152-1.171-5.544-3.394-3.395a298.746,298.746,0,0,1-40.575,33.227q-6.379,4.3-12.993,8.235c-2.65,1.582-.239,5.733,2.423,4.145Z"/><path class="b" d="M39.15,126.994c-2.371-5.9-6.183-10.632-12.188-13.063-5.815-2.354-12.85-2.187-18.195,1.3C2.538,119.3.233,126.764.018,133.883a76.657,76.657,0,0,0,.805,11.494q.726,6.015,1.417,12.034c1.532,13.39,2.906,26.8,3.967,40.236.909,11.515,1.825,23.108,2.026,34.661.253,14.577-2.469,29.874,2.228,44.024a44.712,44.712,0,0,0,2.115,5.2,2.42,2.42,0,0,0,3.283.861,2.451,2.451,0,0,0,.861-3.283c-6.03-12.619-3.995-27.417-3.71-40.915.24-11.4-.715-22.89-1.53-34.259C10.622,191.957,9.5,180,8.222,168.058q-1.191-11.1-2.54-22.189c-.835-6.925-1.988-14.614,1.092-21.18a13.452,13.452,0,0,1,14.939-7.312,16.565,16.565,0,0,1,7.833,3.569,18.952,18.952,0,0,1,4.976,7.324,2.475,2.475,0,0,0,2.952,1.677,2.417,2.417,0,0,0,1.676-2.953Z"/><path class="b" d="M193.346,142.6a49.281,49.281,0,0,0,7.887-12.177,15.686,15.686,0,0,0-.086-12.443,17.239,17.239,0,0,0-21.774-9.011,28.1,28.1,0,0,0-10.443,7.839,45.574,45.574,0,0,0-7.676,11.046A21.941,21.941,0,0,0,159.394,142a15.177,15.177,0,0,0,7.082,9.722c9.711,5.385,20.613-1.773,26.87-9.121a2.464,2.464,0,0,0,0-3.4,2.421,2.421,0,0,0-3.394,0c-4.31,5.063-11.15,10.9-18.365,9.335a9.653,9.653,0,0,1-6.913-5.782,14.915,14.915,0,0,1-.017-10.553,31.171,31.171,0,0,1,5.638-9.6,35.142,35.142,0,0,1,7.634-7.5,13.175,13.175,0,0,1,9.6-2.325,12.491,12.491,0,0,1,8.093,5.036,11.268,11.268,0,0,1,1.414,10.234,27,27,0,0,1-2.937,5.435,56.657,56.657,0,0,1-4.148,5.72,2.467,2.467,0,0,0,0,3.4A2.421,2.421,0,0,0,193.346,142.6Z"/><path class="b" d="M193.346,182.6a49.244,49.244,0,0,0,7.887-12.177,15.683,15.683,0,0,0-.086-12.442,17.237,17.237,0,0,0-21.774-9.011,28.112,28.112,0,0,0-10.443,7.838,45.593,45.593,0,0,0-7.676,11.046A21.943,21.943,0,0,0,159.394,182a15.177,15.177,0,0,0,7.082,9.722c9.711,5.384,20.613-1.773,26.87-9.122a2.463,2.463,0,0,0,0-3.394,2.421,2.421,0,0,0-3.394,0c-4.31,5.062-11.15,10.895-18.365,9.335a9.652,9.652,0,0,1-6.913-5.783,14.912,14.912,0,0,1-.017-10.552A31.187,31.187,0,0,1,170.3,162.6a35.137,35.137,0,0,1,7.634-7.494,13.175,13.175,0,0,1,9.6-2.325,12.489,12.489,0,0,1,8.093,5.035,11.269,11.269,0,0,1,1.414,10.234,26.977,26.977,0,0,1-2.937,5.435,56.783,56.783,0,0,1-4.148,5.721,2.466,2.466,0,0,0,0,3.394A2.419,2.419,0,0,0,193.346,182.6Z"/><path class="b" d="M168.694,63.764a67.382,67.382,0,0,0-5.5,7.649,22.691,22.691,0,0,0-3.46,8.142,16.325,16.325,0,0,0,5.093,14.423,17.575,17.575,0,0,0,15.866,4.056c4.417-1.1,7.977-4.127,11.325-7.061a59.854,59.854,0,0,0,8.817-9.214A77.562,77.562,0,0,0,205.258,75,23.182,23.182,0,0,0,208.4,67.68c1.01-5.178.452-10.934-2.917-15.168-3.615-4.544-9.535-6.067-15.086-4.966-5.075,1.006-9.011,4.02-12.764,7.375a92.924,92.924,0,0,0-8.939,8.843,2.462,2.462,0,0,0,0,3.394,2.42,2.42,0,0,0,3.394,0,84.788,84.788,0,0,1,6.691-6.782c1.328-1.245,2.676-2.47,4.066-3.646a19.823,19.823,0,0,1,2.915-2.21c3.894-2.376,9.1-3.7,13.3-1.289,3.668,2.1,5,5.974,4.987,10.02a14.819,14.819,0,0,1-1.233,6.282,55.113,55.113,0,0,1-3.571,6.078,48.624,48.624,0,0,1-7.1,8.723,59.212,59.212,0,0,1-8.643,7.268,12.53,12.53,0,0,1-11.679,1.207,11.919,11.919,0,0,1-7.5-10.783c-.007-2.715,1.2-5.163,2.567-7.443a57.933,57.933,0,0,1,5.211-7.425,2.467,2.467,0,0,0,0-3.394A2.419,2.419,0,0,0,168.694,63.764Z"/><rect class="c" x="32.777" y="2.406" width="151.139" height="267.253" rx="20.489"/><path class="b" d="M98.445,19.36q9.9,0,19.8-.01c3.088,0,3.093-4.8,0-4.8q-9.9,0-19.8.01c-3.088,0-3.093,4.8,0,4.8Z"/><path class="a" d="M179.65,29.682l-146.434.01h-.435c0,32.929,0,175.737,0,211.389.286,0,.439,0,.439,0l150.552-.011h.146c0-35.668,0-178.478,0-211.384H179.65Z"/><path class="b" d="M163.428,267.258H63.5c-3.34,0-6.681.01-10.021,0a18.287,18.287,0,0,1-18.306-18.089c-.01-1.353,0-2.706,0-4.059V24.609c0-.542,0-1.085,0-1.627A18.05,18.05,0,0,1,53.27,4.806c.732-.006,1.465,0,2.2,0H160.089c1.053,0,2.107,0,3.16,0A18.321,18.321,0,0,1,174.662,8.7c4.782,3.81,6.855,9.364,6.855,15.323V244.078c0,1.674.01,3.348,0,5.021a18.282,18.282,0,0,1-18.089,18.159c-3.087.028-3.095,4.828,0,4.8a23.158,23.158,0,0,0,22.889-22.9c.011-1.523,0-3.047,0-4.57V23.744a23.438,23.438,0,0,0-8.811-18.873A23.171,23.171,0,0,0,163.325.006c-.981-.006-1.963,0-2.944,0H55.228c-.9,0-1.81-.02-2.713.013a22.977,22.977,0,0,0-16.5,7.845c-4.023,4.689-5.636,10.358-5.636,16.424V245.6a50.915,50.915,0,0,0,.164,6.165A23.145,23.145,0,0,0,53.4,272.058c3.26.018,6.521,0,9.781,0H163.428C166.516,272.058,166.522,267.258,163.428,267.258Z"/><path class="b" d="M33.216,243.477H49.024l35.485,0,42.589,0,37.116,0c6.353,0,12.715.1,19.068,0,.162,0,.324,0,.486,0,3.089,0,3.094-4.8,0-4.8H167.821l-35.557,0-42.593,0-37.052,0c-6.31,0-12.628-.1-18.937,0-.155,0-.31,0-.466,0-3.088,0-3.093,4.8,0,4.8Z"/><path class="b" d="M33.216,32.092H49.024l35.485,0,42.589,0,37.116,0c6.353,0,12.715.1,19.068,0,.162,0,.324,0,.486,0,3.089,0,3.094-4.8,0-4.8H167.821l-35.557,0-42.593,0-37.052,0c-6.31,0-12.628-.1-18.937,0-.155,0-.31,0-.466,0-3.088,0-3.093,4.8,0,4.8Z"/><path class="c" d="M108.479,87.056a49.415,49.415,0,0,0-29.618,9.557,48.231,48.231,0,0,0-16.989,24.179c-5.9,18.966-.2,41.745,15.723,54.121,15.825,12.3,39.881,13.515,57.139,3.428,17.433-10.191,24.893-31.244,21.945-50.662a48.232,48.232,0,0,0-13.138-26.355,47.749,47.749,0,0,0-26.752-13.61,56.39,56.39,0,0,0-8.31-.658c-3.089-.011-3.093,4.789,0,4.8a45.151,45.151,0,0,1,26.9,8.662A42.706,42.706,0,0,1,150.452,122c5.3,17.022.629,37.549-13.389,48.943-6.755,5.491-15.52,8.455-24.22,9.1-9.252.688-18.723-.827-26.9-5.34a40.773,40.773,0,0,1-17.226-18.564,48.433,48.433,0,0,1-3.76-27.471,44.014,44.014,0,0,1,11.818-23.892A43.476,43.476,0,0,1,101.25,92.374a47.778,47.778,0,0,1,7.229-.518C111.567,91.845,111.573,87.045,108.479,87.056Z"/><path class="a" d="M278.822,357.5c-17.061-1.467-38.293-5.977-53.3-16.044-6.283-4.213-20.4-19.843-36.051-35.042-4.785-4.647-7.362-10.051-5.5-16.456a11.155,11.155,0,0,1,7.708-7.585,37.871,37.871,0,0,1,8.8-1.493l.589-.05c-12.732-16.757-32.018-42.17-45.027-59.072-4.7-6.111-8.375-18.768.073-25.271,8.2-6.31,16.544-1.526,22.63,5.226,9.67,10.727,30.8,36.472,40.793,47.423-.534-6.137,2.71-12.073,10.376-14.788,5.989-2.121,12.525-.283,15.256,5.03-1.695-5.508,1.358-12.314,7.915-15.365s14.593-2.339,18.014,3.3c-.626-5.314,4.188-9.489,8.913-11.176,5.084-1.815,12.731-.217,18.312,6.439,10.852,12.944,19.645,26.582,27.279,38.369,11.151,17.217,18.729,30.207,22.772,37.523Z"/><path class="d" d="M86.141,141.457c4.417,4.422,8.745,8.933,13.16,13.358a6.209,6.209,0,0,0,8.641,0q13.662-13.407,27.066-27.076a6.11,6.11,0,0,0-8.641-8.641Q112.99,132.789,99.3,146.173h8.641c-4.415-4.424-8.743-8.935-13.16-13.358a6.11,6.11,0,0,0-8.641,8.642Z"/><path class="b" d="M214.716,294.825c-6.229-8.107-12.388-16.268-18.572-24.408q-13.792-18.154-27.622-36.283-3.243-4.243-6.494-8.483a72.549,72.549,0,0,1-5.475-7.435c-2.917-5.021-4.657-12.109-1.343-17.3a11.059,11.059,0,0,1,9.364-4.974c3.938.136,7.5,2.618,10.272,5.221a91.355,91.355,0,0,1,6.222,6.807q3.224,3.707,6.4,7.451c9.242,10.846,18.315,21.845,27.763,32.512q1.29,1.457,2.6,2.9c2.084,2.289,5.471-1.113,3.394-3.394-9.595-10.532-18.623-21.587-27.842-32.445-4.177-4.919-8.343-9.853-12.658-14.652-5.978-6.65-14.921-12.129-23.748-7.294a15.724,15.724,0,0,0-7.565,9.066,20.647,20.647,0,0,0-.112,10.71,27.422,27.422,0,0,0,3.978,9.2c1.874,2.751,4.052,5.328,6.076,7.97q14.259,18.609,28.423,37.29Q198.5,281.394,209.23,295.5q.671.876,1.341,1.75a2.48,2.48,0,0,0,3.284.861,2.416,2.416,0,0,0,.861-3.283Z"/><path class="b" d="M278.822,355.1a148.459,148.459,0,0,1-27.773-4.988c-8.761-2.5-17.615-5.9-25.062-11.251a2.6,2.6,0,0,1-.4-.308c-.262-.211-.525-.422-.784-.638-.58-.483-1.15-.979-1.714-1.482-1.35-1.205-2.666-2.45-3.967-3.708-3.312-3.2-6.541-6.486-9.769-9.769-3.855-3.919-7.7-7.847-11.589-11.733q-3.1-3.1-6.243-6.163a22.478,22.478,0,0,1-4.312-5.417c-2.07-3.862-2.1-9.264,1.1-12.555,3-3.083,7.93-3.465,12.165-3.808a2.461,2.461,0,0,0,2.4-2.4,2.418,2.418,0,0,0-2.4-2.4c-4.405.357-9.51.8-13.283,3.347a14.545,14.545,0,0,0-6.222,12.751c.2,5.169,2.931,9.66,6.507,13.242,4.332,4.339,8.724,8.616,13.028,12.984,6.6,6.7,13.026,13.73,20.165,19.879,6.945,5.983,15.765,9.76,24.391,12.61a148.8,148.8,0,0,0,33.764,6.607,2.419,2.419,0,0,0,2.4-2.4,2.45,2.45,0,0,0-2.4-2.4Z"/><path class="b" d="M221.93,249.135c-.41-5.345,2.431-9.685,7.333-11.958,4.837-2.243,11.11-1.668,13.826,3.411,1.284,2.4,5.147.759,4.387-1.849-1.537-5.273,2.071-10.557,6.98-12.731,4.634-2.052,11.529-2.3,14.562,2.517,1.172,1.86,4.711,1.3,4.473-1.212-.344-3.612,2.193-6.286,5.172-7.945a11.323,11.323,0,0,1,8.242-1.25,17.555,17.555,0,0,1,9.438,5.832c3.235,3.7,6.217,7.654,9.136,11.606,5.521,7.475,10.66,15.219,15.718,23.011,4.988,7.684,9.912,15.407,14.669,23.236,3.581,5.9,7.09,11.839,10.428,17.876,1.5,2.7,5.643.285,4.145-2.423-7.738-13.992-16.284-27.53-24.985-40.938-5.434-8.374-10.961-16.693-16.947-24.686q-2.38-3.18-4.853-6.292a67.32,67.32,0,0,0-5.053-6,21.357,21.357,0,0,0-10.892-5.948,16.761,16.761,0,0,0-12.087,2.19c-4.056,2.484-7.406,6.739-6.931,11.728l4.472-1.211c-4.453-7.073-13.769-7.46-20.794-4.387-6.9,3.016-11.718,10.764-9.522,18.3l4.387-1.849c-3.848-7.195-12.7-8.461-19.674-5.453-6.595,2.844-10.989,9.127-10.43,16.422a2.459,2.459,0,0,0,2.4,2.4,2.419,2.419,0,0,0,2.4-2.4Z"/></svg>